<?xml version="1.0" encoding="UTF-8"?>
<svg width="535px" height="89px" viewBox="0 0 535 89" version="1.1" xmlns="http://www.w3.org/2000/svg" xmlns:xlink="http://www.w3.org/1999/xlink">
    <!-- Generator: Sketch 49.2 (51160) - http://www.bohemiancoding.com/sketch -->
    <title>Boman_logistics</title>
    <desc>Created with Sketch.</desc>
    <defs>
        <rect id="path-1" x="0" y="0" width="535" height="89"></rect>
    </defs>
    <g id="Page-1" stroke="none" stroke-width="1" fill="none" fill-rule="evenodd">
        <g id="Boman_logistics">
            <mask id="mask-2" fill="white">
                <use xlink:href="#path-1"></use>
            </mask>
            <use id="Mask" fill="#D8D8D8" opacity="0" xlink:href="#path-1"></use>
            <g mask="url(#mask-2)">
                <g transform="translate(-16.000000, -98.000000)">
                    <polyline id="Fill-1" stroke="none" fill="#1A1919" fill-rule="evenodd" points="48.972 98.346 550.62 98.346 517.979 158.248 16.332 158.248 48.972 98.346"></polyline>
                    <polyline id="Fill-2" stroke="none" fill="#D8232A" fill-rule="evenodd" points="52.347 104.029 541.051 104.029 514.604 152.565 25.901 152.565 52.347 104.029"></polyline>
                    <path d="M355.027,109.621 L373.216,109.621 C376.038,109.621 380.062,109.863 382.336,111.752 C385.428,114.245 384.588,118.322 383.204,121.512 C382.781,122.487 382.283,123.437 381.763,124.361 L380.482,126.644 C378.21,130.717 375.17,134.518 371.04,136.81 C367.298,138.912 362.896,139.581 358.655,139.581 L353.154,139.581 L348.048,148.775 L317.579,148.775 L318.594,139.494 L309.132,148.775 L261.209,148.775 L282.982,109.621 L314.841,109.621 L307.992,122.02 L290.91,122.02 L290.226,123.242 L306.802,123.242 L300.482,134.62 L283.893,134.62 L282.915,136.376 L300.383,136.376 L295.402,145.304 L314.494,127.613 L315.75,109.621 L331.46,109.621 L330.418,117.24 L337.881,109.621 L355.027,109.621 Z M354.764,110.093 L334.318,129.394 L333.434,148.451 L354.764,110.093 Z M368.022,122.09 C367.825,122.073 367.626,122.069 367.515,122.069 L362.891,122.069 L360.059,127.182 L362.973,127.182 C363.532,127.182 364.547,127.128 365.027,126.793 C365.632,126.371 366.322,125.197 366.671,124.559 L367.782,122.559 C367.868,122.406 367.948,122.249 368.022,122.09 Z M165.091,146.763 L196.73,109.621 L215.444,109.621 L204.98,148.775 L189.77,148.775 L191.511,142.743 L184.563,142.743 L179.612,148.775 L149.42,148.775 L153.622,141.224 L147.3,148.775 L133.658,148.775 L136.315,139.215 L130.989,148.775 L116.439,148.775 L138.221,109.621 L156.553,109.621 L151.827,127.446 L166.906,109.621 L185.746,109.621 L165.091,146.763 Z M195.151,131.025 L195.887,128.676 L194.011,131.025 L195.151,131.025 Z M83.641,129.293 C84.622,131.002 84.477,133.161 83.517,135.375 C83.353,135.754 83.176,136.136 82.97,136.493 L81.794,138.535 C79.645,142.268 76.711,145.509 72.659,147.174 C69.4,148.513 65.211,148.775 61.723,148.775 L41.622,148.775 L63.395,109.621 L81.633,109.621 C84.454,109.621 88.583,109.833 90.916,111.615 C93.457,113.558 93.077,116.567 91.812,119.159 L90.972,120.864 L89.683,123.15 C88.182,125.803 86.194,127.934 83.641,129.293 Z M75.496,121.971 L71.299,121.971 L70.538,123.339 L73.543,123.339 C74.348,123.339 74.852,123.075 75.256,122.387 L75.496,121.971 Z M68.971,134.668 L64.235,134.668 L63.283,136.376 L66.625,136.376 C67.515,136.376 68.179,136.155 68.613,135.334 L68.971,134.668 Z M128.832,122.193 C128.196,123.66 127.442,125.096 126.665,126.494 L122.666,133.695 C120.242,138.046 117.003,142.678 112.808,145.487 C108.676,148.258 103.752,149.213 98.844,149.213 L94.174,149.213 C91.169,149.213 86.784,148.937 84.539,146.647 C81.781,143.817 83.055,139.37 84.428,136.203 C85.072,134.718 85.83,133.267 86.616,131.854 L90.614,124.653 C93.046,120.283 96.296,115.621 100.502,112.789 C104.559,110.058 109.505,109.183 114.318,109.183 L118.988,109.183 C122.009,109.183 126.378,109.466 128.659,111.734 C131.464,114.554 130.213,119.008 128.832,122.193 Z M113.912,122.093 C113.442,122.029 112.815,122.02 112.534,122.02 L110.783,122.02 C109.535,122.02 107.978,122.203 106.996,123.062 C106.059,123.878 104.752,126.198 104.14,127.281 L100.942,132.972 C100.457,133.835 99.935,134.759 99.541,135.667 C99.487,135.791 99.39,136.029 99.32,136.255 C99.79,136.319 100.418,136.328 100.698,136.328 L102.449,136.328 C103.727,136.328 105.239,136.134 106.241,135.281 C107.177,134.466 108.46,132.193 109.071,131.114 L112.269,125.424 C112.763,124.544 113.289,123.607 113.691,122.68 C113.745,122.556 113.842,122.318 113.912,122.093 Z M228.377,132.583 L219.38,148.775 L205.023,148.775 L226.796,109.621 L244.944,109.621 L242.917,125.749 L251.898,109.621 L266.255,109.621 L244.472,148.775 L226.238,148.775 L228.377,132.583 Z M409.164,132.639 C410.117,134.272 409.976,136.393 409.025,138.587 C408.896,138.882 408.743,139.172 408.593,139.454 C408.491,139.646 408.38,139.848 408.294,140.047 L408.257,140.132 L403.456,148.775 L388.462,148.775 L393.75,139.294 C393.834,139.144 393.922,138.985 393.99,138.83 L394.041,138.712 C393.895,138.707 393.762,138.706 393.671,138.706 L390.02,138.706 L384.437,148.775 L369.64,148.775 L391.414,109.621 L407.268,109.621 C409.969,109.621 414.133,109.705 416.633,110.802 C420.72,112.593 420.882,116.403 419.279,120.101 C418.953,120.853 418.563,121.591 418.166,122.309 L416.604,125.127 C414.791,128.417 412.346,131.019 409.164,132.639 Z M403.37,122.023 C403.245,122.021 403.131,122.02 403.047,122.02 L399.34,122.02 L396.987,126.209 L398.566,126.209 C399.29,126.209 400.21,126.129 400.856,125.769 C401.48,125.42 402.044,124.508 402.372,123.893 L403.09,122.575 C403.168,122.434 403.255,122.281 403.318,122.143 L403.37,122.023 Z M435.68,122.02 L434.996,123.242 L451.572,123.242 L445.252,134.62 L428.663,134.62 L427.685,136.376 L445.153,136.376 L438.235,148.775 L405.979,148.775 L427.752,109.621 L459.611,109.621 L452.762,122.02 L435.68,122.02 Z M479.871,124.355 C483.238,125.871 484.637,128.901 482.673,133.428 C482.548,133.718 482.398,134.002 482.248,134.281 C482.151,134.46 482.045,134.652 481.965,134.839 L481.928,134.922 L480.062,138.307 C478.233,141.644 475.706,144.356 472.443,146.316 C469.337,148.181 465.954,149.213 462.326,149.213 L454.591,149.213 C451.747,149.213 447.775,148.932 445.592,146.859 C443.173,144.671 443.534,141.632 444.877,138.939 L445.71,137.247 L447.857,133.36 L455.5,133.36 C452.283,131.763 451.437,128.518 453.315,124.187 C453.639,123.441 454.015,122.716 454.418,122.009 L455.64,119.865 C457.643,116.376 460.315,113.404 463.851,111.417 C467.069,109.629 471.161,109.183 474.784,109.183 L480.475,109.183 C483.632,109.183 487.992,109.632 489.686,112.751 C490.802,114.806 490.299,117.19 489.417,119.225 C489.222,119.675 489.017,120.134 488.78,120.559 L486.676,124.355 L479.871,124.355 Z M473.999,121.242 L472.024,121.242 C471.519,121.242 470.647,121.235 470.175,121.363 C469.726,121.494 469.446,121.75 469.216,122.141 L469,122.52 C469.137,122.538 469.273,122.556 469.408,122.575 L473.027,123.003 L473.999,121.242 Z M461.557,134.622 L460.252,136.99 C460.243,137.005 460.235,137.02 460.227,137.035 C460.575,137.056 460.935,137.057 461.139,137.057 L463.522,137.057 C464.544,137.057 465.865,136.912 466.426,135.935 L466.834,135.211 C466.708,135.197 466.592,135.186 466.497,135.175 L461.557,134.622 Z M515.042,124.355 C518.409,125.871 519.808,128.901 517.844,133.428 C517.719,133.718 517.568,134.002 517.419,134.281 C517.322,134.46 517.216,134.652 517.136,134.839 L517.099,134.922 L515.233,138.307 C513.404,141.644 510.877,144.356 507.614,146.316 C504.508,148.181 501.125,149.213 497.497,149.213 L489.762,149.213 C486.918,149.213 482.946,148.932 480.763,146.859 C478.345,144.671 478.705,141.632 480.048,138.939 L480.881,137.247 L483.028,133.36 L490.671,133.36 C487.454,131.763 486.608,128.518 488.486,124.187 C488.81,123.441 489.187,122.716 489.589,122.009 L490.811,119.865 C492.814,116.376 495.486,113.404 499.022,111.417 C502.24,109.629 506.332,109.183 509.955,109.183 L515.646,109.183 C518.803,109.183 523.163,109.632 524.857,112.751 C525.973,114.806 525.47,117.19 524.588,119.225 C524.393,119.675 524.188,120.134 523.95,120.559 L521.847,124.355 L515.042,124.355 Z M509.17,121.242 L507.195,121.242 C506.69,121.242 505.817,121.235 505.346,121.363 C504.896,121.494 504.616,121.75 504.387,122.141 L504.171,122.52 C504.308,122.538 504.444,122.556 504.579,122.575 L508.198,123.003 L509.17,121.242 Z M496.728,134.622 L495.423,136.99 C495.414,137.005 495.406,137.02 495.398,137.035 C495.746,137.056 496.106,137.057 496.31,137.057 L498.693,137.057 C499.715,137.057 501.036,136.912 501.597,135.935 L502.005,135.211 C501.879,135.197 501.763,135.186 501.668,135.175 L496.728,134.622 Z" id="Fill-3" stroke="none" fill="#FFFFFE" fill-rule="evenodd"></path>
                    <path d="M90.111,118.326 L89.297,119.98 L88.035,122.218 C86.09,125.655 83.443,127.796 80.093,128.639 C82.469,129.742 83.031,131.736 81.779,134.622 C81.61,135.012 81.461,135.32 81.33,135.547 L80.152,137.59 C77.913,141.481 75.176,144.092 71.939,145.422 C69.572,146.395 66.166,146.881 61.723,146.881 L44.843,146.881 L64.51,111.516 L81.633,111.516 C85.654,111.516 88.366,112.051 89.766,113.121 C91.167,114.191 91.282,115.926 90.111,118.326 Z M77.681,121.974 C78.424,120.71 78.001,120.077 76.412,120.077 L70.185,120.077 L67.317,125.234 L73.544,125.234 C75.035,125.234 76.153,124.601 76.896,123.336 L77.681,121.974 Z M71.041,134.817 C71.762,133.455 71.312,132.774 69.69,132.774 L63.123,132.774 L60.058,138.271 L66.625,138.271 C68.344,138.271 69.563,137.59 70.284,136.228 L71.041,134.817 Z" id="Fill-4" stroke="none" fill="#1A1919" fill-rule="evenodd"></path>
                    <path d="M127.094,121.439 C126.588,122.607 125.893,123.985 125.009,125.574 L121.011,132.774 C118.084,138.028 114.998,141.741 111.754,143.914 C108.369,146.184 104.066,147.319 98.845,147.319 L94.175,147.319 C89.959,147.319 87.199,146.654 85.895,145.324 C84.346,143.735 84.437,140.946 86.166,136.957 C86.687,135.757 87.389,134.363 88.273,132.774 L92.27,125.574 C95.212,120.288 98.308,116.551 101.56,114.361 C104.812,112.172 109.065,111.078 114.318,111.078 L118.988,111.078 C123.204,111.078 125.981,111.743 127.317,113.072 C128.899,114.661 128.824,117.45 127.094,121.439 Z M115.43,123.434 C116.034,122.039 116.046,121.115 115.473,120.661 C115.044,120.304 114.067,120.126 112.551,120.126 L110.808,120.126 C108.611,120.126 106.942,120.629 105.792,121.634 C105.01,122.315 103.923,123.888 102.538,126.353 L99.34,132.044 C98.629,133.309 98.133,134.266 97.852,134.914 C97.247,136.309 97.235,137.233 97.809,137.687 C98.238,138.044 99.214,138.222 100.73,138.222 L102.474,138.222 C104.638,138.222 106.308,137.719 107.49,136.714 C108.271,136.033 109.352,134.476 110.723,132.044 L113.921,126.353 C114.632,125.088 115.134,124.115 115.43,123.434 Z" id="Fill-5" stroke="none" fill="#1A1919" fill-rule="evenodd"></path>
                    <polyline id="Fill-6" stroke="none" fill="#1A1919" fill-rule="evenodd" points="182.524 111.516 162.858 146.881 152.642 146.881 164.986 124.699 146.416 146.881 136.151 146.881 142.395 124.407 129.876 146.881 119.66 146.881 139.335 111.516 154.099 111.516 147.854 135.076 167.785 111.516 182.524 111.516"></polyline>
                    <path d="M203.526,146.881 L192.289,146.881 L194.029,140.849 L183.668,140.849 L178.716,146.881 L167.479,146.881 L197.604,111.516 L212.976,111.516 L203.526,146.881 Z M196.543,132.92 L200.718,119.591 L190.073,132.92 L196.543,132.92 Z" id="Fill-7" stroke="none" fill="#1A1919" fill-rule="evenodd"></path>
                    <polyline id="Fill-8" stroke="none" fill="#1A1919" fill-rule="evenodd" points="263.033 111.516 243.366 146.881 228.424 146.881 231.596 122.891 218.274 146.881 208.244 146.881 227.911 111.516 242.796 111.516 239.819 135.206 253.012 111.516 263.033 111.516"></polyline>
                    <polyline id="Fill-9" stroke="none" fill="#1A1919" fill-rule="evenodd" points="311.629 111.516 306.874 120.126 289.8 120.126 286.994 125.136 303.582 125.136 299.367 132.725 282.779 132.725 279.693 138.271 297.157 138.271 292.353 146.881 264.43 146.881 284.096 111.516 311.629 111.516"></polyline>
                    <polyline id="Fill-10" stroke="none" fill="#1A1919" fill-rule="evenodd" points="350.497 111.516 332.46 128.542 331.609 146.881 319.691 146.881 321.054 134.428 308.357 146.881 296.487 146.881 316.331 128.493 317.516 111.516 329.288 111.516 327.765 122.656 338.677 111.516 350.497 111.516"></polyline>
                    <path d="M381.466,120.758 C381.128,121.537 380.676,122.428 380.111,123.434 L378.827,125.72 C376.349,130.163 373.445,133.309 370.113,135.158 C367.112,136.844 363.292,137.687 358.655,137.687 L352.039,137.687 L346.933,146.881 L336.474,146.881 L356.14,111.516 L373.215,111.516 C377.139,111.516 379.779,112.083 381.136,113.218 C382.917,114.645 383.027,117.159 381.466,120.758 Z M369.822,122.704 C370.554,121.018 369.784,120.175 367.514,120.175 L361.774,120.175 L356.843,129.077 L362.973,129.077 C364.367,129.077 365.413,128.833 366.11,128.347 C366.808,127.861 367.547,126.904 368.328,125.477 L369.436,123.482 C369.581,123.223 369.71,122.964 369.822,122.704 Z" id="Fill-11" stroke="none" fill="#1A1919" fill-rule="evenodd"></path>
                    <path d="M417.54,119.348 C417.301,119.899 416.957,120.58 416.508,121.391 L414.944,124.212 C412.657,128.363 409.482,130.974 405.418,132.044 C407.943,132.952 408.566,134.882 407.286,137.833 C407.215,137.995 407.094,138.238 406.921,138.563 C406.747,138.887 406.626,139.13 406.556,139.292 L402.34,146.881 L391.687,146.881 L395.404,140.216 C395.549,139.957 395.657,139.746 395.727,139.584 L395.854,139.292 C396.29,138.287 396.277,137.606 395.815,137.249 C395.488,136.957 394.772,136.812 393.67,136.812 L388.903,136.812 L383.32,146.881 L372.861,146.881 L392.527,111.516 L407.267,111.516 C411.45,111.516 414.319,111.856 415.872,112.537 C418.461,113.672 419.017,115.942 417.54,119.348 Z M405.055,122.899 L405.245,122.461 C405.667,121.488 405.647,120.823 405.185,120.466 C404.862,120.239 404.149,120.126 403.047,120.126 L398.231,120.126 L393.749,128.104 L398.565,128.104 C399.895,128.104 400.966,127.877 401.779,127.423 C402.592,126.969 403.345,126.093 404.037,124.796 L404.753,123.482 C404.912,123.19 405.013,122.996 405.055,122.899 Z" id="Fill-12" stroke="none" fill="#1A1919" fill-rule="evenodd"></path>
                    <polyline id="Fill-13" stroke="none" fill="#1A1919" fill-rule="evenodd" points="456.399 111.516 451.643 120.126 434.569 120.126 431.763 125.136 448.352 125.136 444.136 132.725 427.548 132.725 424.462 138.271 441.926 138.271 437.122 146.881 409.199 146.881 428.865 111.516 456.399 111.516"></polyline>
                    <path d="M487.677,118.472 C487.452,118.991 487.268,119.38 487.122,119.64 L485.558,122.461 L475.489,122.461 L475.945,121.634 C476.45,120.693 476.547,120.077 476.235,119.786 C475.924,119.494 475.25,119.348 474.212,119.348 L472.023,119.348 C470.92,119.348 470.13,119.412 469.652,119.542 C468.762,119.802 468.068,120.353 467.573,121.196 L466.767,122.607 C466.271,123.45 466.435,123.969 467.259,124.164 C467.587,124.228 468.226,124.326 469.175,124.455 L475.746,125.234 C481.089,125.85 482.818,128.331 480.934,132.677 C480.863,132.839 480.745,133.074 480.579,133.382 C480.413,133.69 480.295,133.925 480.224,134.087 L478.401,137.395 C476.694,140.508 474.382,142.941 471.466,144.692 C468.55,146.443 465.503,147.319 462.325,147.319 L454.59,147.319 C450.731,147.319 448.16,146.703 446.879,145.47 C445.431,144.173 445.329,142.276 446.575,139.779 L447.389,138.125 L448.974,135.255 L459.044,135.255 L458.588,136.082 C458.429,136.374 458.328,136.568 458.286,136.665 C457.864,137.638 457.997,138.303 458.686,138.66 C459.12,138.854 459.938,138.952 461.137,138.952 L463.521,138.952 C465.759,138.952 467.277,138.255 468.073,136.868 L468.922,135.36 C469.445,134.452 469.342,133.868 468.611,133.609 C468.242,133.487 467.61,133.374 466.712,133.276 L459.475,132.466 C454.576,131.947 453.104,129.434 455.055,124.934 C455.323,124.318 455.66,123.653 456.066,122.939 L457.286,120.799 C459.278,117.329 461.77,114.759 464.772,113.072 C467.165,111.743 470.501,111.078 474.782,111.078 L480.474,111.078 C487.414,111.078 489.815,113.542 487.677,118.472" id="Fill-14" stroke="none" fill="#1A1919" fill-rule="evenodd"></path>
                    <path d="M522.848,118.472 C522.623,118.991 522.438,119.38 522.293,119.64 L520.729,122.461 L510.66,122.461 L511.115,121.634 C511.621,120.693 511.717,120.077 511.406,119.786 C511.095,119.494 510.421,119.348 509.383,119.348 L507.194,119.348 C506.091,119.348 505.301,119.412 504.823,119.542 C503.932,119.802 503.239,120.353 502.744,121.196 L501.937,122.607 C501.442,123.45 501.606,123.969 502.43,124.164 C502.758,124.228 503.397,124.326 504.346,124.455 L510.916,125.234 C516.259,125.85 517.989,128.331 516.104,132.677 C516.034,132.839 515.916,133.074 515.75,133.382 C515.584,133.69 515.465,133.925 515.395,134.087 L513.572,137.395 C511.865,140.508 509.553,142.941 506.637,144.692 C503.721,146.443 500.674,147.319 497.496,147.319 L489.761,147.319 C485.902,147.319 483.331,146.703 482.05,145.47 C480.602,144.173 480.5,142.276 481.745,139.779 L482.56,138.125 L484.145,135.255 L494.215,135.255 L493.759,136.082 C493.6,136.374 493.499,136.568 493.457,136.665 C493.035,137.638 493.168,138.303 493.857,138.66 C494.291,138.854 495.108,138.952 496.308,138.952 L498.692,138.952 C500.93,138.952 502.448,138.255 503.244,136.868 L504.093,135.36 C504.616,134.452 504.513,133.868 503.782,133.609 C503.413,133.487 502.781,133.374 501.883,133.276 L494.646,132.466 C489.747,131.947 488.275,129.434 490.226,124.934 C490.493,124.318 490.83,123.653 491.237,122.939 L492.457,120.799 C494.449,117.329 496.941,114.759 499.943,113.072 C502.336,111.743 505.672,111.078 509.953,111.078 L515.645,111.078 C522.585,111.078 524.986,113.542 522.848,118.472" id="Fill-15" stroke="none" fill="#1A1919" fill-rule="evenodd"></path>
                    <polyline id="Fill-16" stroke="none" fill="#1A1919" fill-rule="evenodd" points="333.672 180.757 330.393 186.627 313.102 186.627 325.999 163.434 332.922 163.434 323.304 180.757 333.672 180.757"></polyline>
                    <path d="M363.437,169.942 C363.106,170.708 362.65,171.612 362.07,172.654 L359.448,177.376 C357.529,180.821 355.505,183.256 353.377,184.681 C351.157,186.17 348.336,186.914 344.911,186.914 L341.849,186.914 C339.084,186.914 337.274,186.479 336.418,185.607 C335.403,184.564 335.462,182.735 336.597,180.119 C336.938,179.332 337.398,178.418 337.978,177.376 L340.6,172.654 C342.529,169.187 344.559,166.736 346.692,165.301 C348.824,163.865 351.613,163.147 355.059,163.147 L358.121,163.147 C360.886,163.147 362.707,163.583 363.584,164.455 C364.621,165.497 364.572,167.326 363.437,169.942 Z M355.788,171.25 C356.184,170.336 356.192,169.73 355.816,169.432 C355.535,169.198 354.894,169.081 353.9,169.081 L352.757,169.081 C351.316,169.081 350.221,169.41 349.467,170.07 C348.955,170.517 348.242,171.548 347.333,173.164 L345.236,176.897 C344.77,177.726 344.444,178.354 344.26,178.779 C343.863,179.694 343.856,180.3 344.232,180.598 C344.513,180.832 345.154,180.949 346.148,180.949 L347.291,180.949 C348.711,180.949 349.805,180.619 350.581,179.96 C351.093,179.513 351.802,178.492 352.701,176.897 L354.798,173.164 C355.264,172.335 355.594,171.697 355.788,171.25 Z" id="Fill-17" stroke="none" fill="#1A1919" fill-rule="evenodd"></path>
                    <path d="M388.936,169.113 C388.807,169.41 388.695,169.645 388.6,169.815 L387.887,171.091 L381.028,171.091 C381.123,170.921 381.184,170.804 381.212,170.74 C381.526,170.017 381.436,169.538 380.942,169.304 C380.666,169.155 380.081,169.081 379.188,169.081 L377.625,169.081 C376.221,169.081 375.161,169.368 374.444,169.942 C373.858,170.41 373.094,171.484 372.153,173.164 L370.056,176.897 C369.59,177.726 369.269,178.343 369.094,178.747 C368.688,179.683 368.676,180.3 369.057,180.598 C369.339,180.832 369.99,180.949 371.01,180.949 L372.733,180.949 C373.712,180.949 374.455,180.853 374.963,180.661 C375.7,180.385 376.297,179.843 376.753,179.034 L377.053,178.492 L373.512,178.492 L376.221,173.643 L386.461,173.643 L384.152,177.79 C382.404,180.938 380.425,183.246 378.215,184.713 C376.005,186.181 373.326,186.914 370.178,186.914 L365.967,186.914 C361.139,186.914 359.832,184.362 362.046,179.258 L362.35,178.556 C362.414,178.407 362.689,177.897 363.173,177.025 L365.068,173.611 C366.988,170.166 369.067,167.603 371.306,165.922 C373.81,164.072 376.731,163.147 380.07,163.147 L383.452,163.147 C385.579,163.147 387.188,163.604 388.281,164.519 C389.575,165.604 389.794,167.135 388.936,169.113" id="Fill-18" stroke="none" fill="#1A1919" fill-rule="evenodd"></path>
                    <polyline id="Fill-19" stroke="none" fill="#1A1919" fill-rule="evenodd" points="403.49 163.434 390.593 186.627 383.67 186.627 396.567 163.434 403.49 163.434"></polyline>
                    <path d="M424.482,167.996 C424.334,168.336 424.213,168.592 424.118,168.762 L423.092,170.612 L416.488,170.612 L416.787,170.07 C417.118,169.453 417.182,169.049 416.978,168.857 C416.774,168.666 416.331,168.571 415.651,168.571 L414.215,168.571 C413.492,168.571 412.974,168.613 412.66,168.698 C412.076,168.868 411.622,169.23 411.297,169.783 L410.768,170.708 C410.443,171.261 410.551,171.601 411.091,171.729 C411.306,171.771 411.725,171.835 412.348,171.92 L416.656,172.431 C420.16,172.835 421.295,174.462 420.059,177.312 C420.013,177.418 419.935,177.572 419.826,177.774 C419.717,177.977 419.64,178.131 419.594,178.237 L418.398,180.406 C417.278,182.448 415.762,184.043 413.85,185.192 C411.937,186.34 409.939,186.914 407.855,186.914 L402.783,186.914 C400.252,186.914 398.566,186.51 397.725,185.702 C396.775,184.851 396.709,183.607 397.526,181.969 L398.06,180.885 L399.099,179.003 L405.703,179.003 L405.404,179.545 C405.3,179.736 405.234,179.864 405.206,179.928 C404.93,180.566 405.017,181.002 405.468,181.236 C405.753,181.363 406.289,181.427 407.076,181.427 L408.64,181.427 C410.107,181.427 411.103,180.97 411.625,180.061 L412.181,179.072 C412.524,178.476 412.457,178.093 411.977,177.923 C411.736,177.844 411.321,177.769 410.732,177.705 L405.986,177.173 C402.773,176.833 401.808,175.185 403.088,172.234 C403.263,171.83 403.484,171.394 403.751,170.926 L404.551,169.522 C405.857,167.247 407.491,165.561 409.46,164.455 C411.029,163.583 413.217,163.147 416.025,163.147 L419.757,163.147 C424.309,163.147 425.884,164.763 424.482,167.996" id="Fill-20" stroke="none" fill="#1A1919" fill-rule="evenodd"></path>
                    <polyline id="Fill-21" stroke="none" fill="#1A1919" fill-rule="evenodd" points="449.27 163.434 446.151 169.081 440.217 169.081 430.439 186.627 423.516 186.627 433.295 169.081 427.329 169.081 430.448 163.434 449.27 163.434"></polyline>
                    <polyline id="Fill-22" stroke="none" fill="#1A1919" fill-rule="evenodd" points="460.021 163.434 447.124 186.627 440.201 186.627 453.098 163.434 460.021 163.434"></polyline>
                    <path d="M481.18,169.304 C480.903,169.942 480.527,170.687 480.051,171.537 L479.624,172.303 L472.797,172.303 L473.21,171.569 C473.305,171.399 473.404,171.197 473.505,170.963 C474.049,169.708 473.428,169.081 471.642,169.081 C470.302,169.081 469.279,169.379 468.574,169.974 C468.001,170.463 467.252,171.527 466.33,173.164 L464.232,176.897 C463.766,177.726 463.441,178.354 463.257,178.779 C462.869,179.672 462.84,180.279 463.17,180.598 C463.451,180.832 464.07,180.949 465.027,180.949 C466.134,180.949 467.024,180.747 467.699,180.343 C468.374,179.938 469.006,179.205 469.595,178.141 L470.05,177.312 L477.005,177.312 L476.462,178.269 C474.711,181.374 472.782,183.591 470.674,184.921 C468.567,186.25 465.95,186.914 462.823,186.914 L460.718,186.914 C457.953,186.914 456.143,186.479 455.287,185.607 C454.271,184.564 454.331,182.735 455.466,180.119 C455.807,179.332 456.267,178.418 456.847,177.376 L459.469,172.654 C461.397,169.187 463.428,166.736 465.561,165.301 C467.693,163.865 470.482,163.147 473.928,163.147 L475.651,163.147 C478.33,163.147 480.12,163.508 481.018,164.232 C482.186,165.168 482.24,166.859 481.18,169.304" id="Fill-23" stroke="none" fill="#1A1919" fill-rule="evenodd"></path>
                    <path d="M504.493,167.996 C504.345,168.336 504.224,168.592 504.129,168.762 L503.104,170.612 L496.5,170.612 L496.798,170.07 C497.13,169.453 497.193,169.049 496.989,168.857 C496.785,168.666 496.343,168.571 495.662,168.571 L494.227,168.571 C493.503,168.571 492.985,168.613 492.672,168.698 C492.088,168.868 491.633,169.23 491.308,169.783 L490.779,170.708 C490.455,171.261 490.562,171.601 491.102,171.729 C491.318,171.771 491.737,171.835 492.359,171.92 L496.668,172.431 C500.172,172.835 501.306,174.462 500.07,177.312 C500.024,177.418 499.947,177.572 499.838,177.774 C499.729,177.977 499.651,178.131 499.605,178.237 L498.409,180.406 C497.29,182.448 495.774,184.043 493.862,185.192 C491.949,186.34 489.951,186.914 487.866,186.914 L482.794,186.914 C480.263,186.914 478.577,186.51 477.737,185.702 C476.787,184.851 476.72,183.607 477.537,181.969 L478.071,180.885 L479.111,179.003 L485.715,179.003 L485.416,179.545 C485.312,179.736 485.245,179.864 485.218,179.928 C484.941,180.566 485.028,181.002 485.48,181.236 C485.765,181.363 486.301,181.427 487.088,181.427 L488.651,181.427 C490.119,181.427 491.114,180.97 491.636,180.061 L492.193,179.072 C492.536,178.476 492.468,178.093 491.989,177.923 C491.747,177.844 491.333,177.769 490.744,177.705 L485.997,177.173 C482.785,176.833 481.819,175.185 483.099,172.234 C483.274,171.83 483.495,171.394 483.762,170.926 L484.562,169.522 C485.868,167.247 487.503,165.561 489.471,164.455 C491.04,163.583 493.229,163.147 496.036,163.147 L499.769,163.147 C504.32,163.147 505.895,164.763 504.493,167.996" id="Fill-24" stroke="none" fill="#1A1919" fill-rule="evenodd"></path>
                    <polyline id="Fill-25" stroke="none" fill="#1A1919" fill-rule="evenodd" points="303.509 166.319 302.32 173.062 311.623 173.049 301.601 177.202 300.451 183.936 295.446 179.761 285.432 183.936 292.36 177.202 287.322 173.049 296.609 173.062 303.509 166.319"></polyline>
                    <polyline id="Fill-26" stroke="none" fill="#1A1919" fill-rule="evenodd" points="272.345 166.319 271.156 173.062 280.46 173.049 270.438 177.202 269.288 183.936 264.283 179.761 254.268 183.936 261.197 177.202 256.158 173.049 265.445 173.062 272.345 166.319"></polyline>
                    <polyline id="Fill-27" stroke="none" fill="#1A1919" fill-rule="evenodd" points="241.182 166.319 239.993 173.062 249.296 173.049 239.274 177.202 238.124 183.936 233.119 179.761 223.105 183.936 230.034 177.202 224.995 173.049 234.282 173.062 241.182 166.319"></polyline>
                    <polyline id="Fill-28" stroke="none" fill="#1A1919" fill-rule="evenodd" points="210.019 166.319 208.829 173.062 218.133 173.049 208.111 177.202 206.961 183.936 201.956 179.761 191.941 183.936 198.87 177.202 193.831 173.049 203.118 173.062 210.019 166.319"></polyline>
                    <polyline id="Fill-29" stroke="none" fill="#1A1919" fill-rule="evenodd" points="178.855 166.319 177.666 173.062 186.97 173.049 176.948 177.202 175.798 183.936 170.792 179.761 160.778 183.936 167.707 177.202 162.668 173.049 171.955 173.062 178.855 166.319"></polyline>
                    <polygon id="Stroke-61" stroke="#1A1919" stroke-width="0.216" fill="none" points="0.011 284.219 566.94 284.219 566.94 0.754 0.011 0.754"></polygon>
                </g>
            </g>
        </g>
    </g>
</svg>