<?xml version="1.0" encoding="UTF-8"?>
<svg width="533px" height="89px" viewBox="0 0 533 89" version="1.1" xmlns="http://www.w3.org/2000/svg" xmlns:xlink="http://www.w3.org/1999/xlink">
    <!-- Generator: Sketch 49.2 (51160) - http://www.bohemiancoding.com/sketch -->
    <title>Boman_logistics</title>
    <desc>Created with Sketch.</desc>
    <defs>
        <rect id="path-1" x="0" y="0" width="535" height="89"></rect>
    </defs>
    <g id="Page-1" stroke="none" stroke-width="1" fill="none" fill-rule="evenodd">
        <g id="Boman_logistics" transform="translate(-1.000000, 0.000000)">
            <mask id="mask-2" fill="white">
                <use xlink:href="#path-1"></use>
            </mask>
            <use id="Mask" fill="#D8D8D8" opacity="0" xlink:href="#path-1"></use>
            <g mask="url(#mask-2)">
                <g transform="translate(-16.000000, -458.000000)">
                    <polygon id="Fill-30" stroke="none" fill="none" points="0.011 636.408 566.94 636.408 566.94 352.943 0.011 352.943"></polygon>
                    <polygon id="Stroke-31" stroke="#1A1919" stroke-width="0.216" fill="none" points="0.011 636.408 566.94 636.408 566.94 352.943 0.011 352.943"></polygon>
                    <polyline id="Fill-32" stroke="none" fill="#FFFFFE" fill-rule="evenodd" points="49.824 458.205 549.648 458.205 517.127 517.889 17.303 517.889 49.824 458.205"></polyline>
                    <polyline id="Fill-33" stroke="none" fill="#D8232A" fill-rule="evenodd" points="53.188 463.868 540.114 463.868 513.763 512.227 26.837 512.227 53.188 463.868"></polyline>
                    <path d="M354.767,469.439 L372.89,469.439 C375.701,469.439 379.711,469.68 381.977,471.562 C385.058,474.047 384.22,478.109 382.842,481.287 C382.42,482.258 381.924,483.205 381.405,484.126 L380.129,486.4 C377.866,490.459 374.837,494.246 370.721,496.529 C366.993,498.624 362.607,499.291 358.382,499.291 L352.901,499.291 L347.814,508.451 L317.454,508.451 L318.467,499.204 L309.038,508.451 L261.29,508.451 L282.984,469.439 L314.727,469.439 L307.902,481.794 L290.883,481.794 L290.201,483.011 L306.717,483.011 L300.42,494.347 L283.891,494.347 L282.917,496.097 L300.321,496.097 L295.358,504.993 L314.381,487.366 L315.632,469.439 L331.285,469.439 L330.247,477.031 L337.684,469.439 L354.767,469.439 Z M354.505,469.91 L334.133,489.14 L333.252,508.129 L354.505,469.91 Z M367.715,481.863 C367.518,481.847 367.32,481.842 367.209,481.842 L362.602,481.842 L359.78,486.936 L362.684,486.936 C363.24,486.936 364.252,486.883 364.731,486.549 C365.333,486.129 366.021,484.958 366.369,484.323 L367.476,482.33 C367.561,482.178 367.641,482.022 367.715,481.863 Z M165.522,506.446 L197.045,469.439 L215.691,469.439 L205.265,508.451 L190.111,508.451 L191.845,502.441 L184.923,502.441 L179.99,508.451 L149.907,508.451 L154.094,500.927 L147.795,508.451 L134.203,508.451 L136.85,498.926 L131.544,508.451 L117.046,508.451 L138.749,469.439 L157.015,469.439 L152.305,487.199 L167.33,469.439 L186.101,469.439 L165.522,506.446 Z M195.472,490.766 L196.206,488.425 L194.336,490.766 L195.472,490.766 Z M84.367,489.04 C85.345,490.742 85.201,492.893 84.244,495.1 C84.081,495.477 83.905,495.858 83.699,496.213 L82.527,498.248 C80.387,501.967 77.463,505.197 73.426,506.856 C70.179,508.19 66.005,508.451 62.529,508.451 L42.501,508.451 L64.196,469.439 L82.367,469.439 C85.177,469.439 89.292,469.651 91.616,471.426 C94.148,473.362 93.769,476.36 92.509,478.943 L91.673,480.642 L90.388,482.919 C88.892,485.563 86.911,487.685 84.367,489.04 Z M76.252,481.745 L72.07,481.745 L71.312,483.107 L74.306,483.107 C75.108,483.107 75.61,482.845 76.013,482.159 L76.252,481.745 Z M69.751,494.395 L65.032,494.395 L64.083,496.097 L67.413,496.097 C68.3,496.097 68.962,495.877 69.394,495.059 L69.751,494.395 Z M129.394,481.965 C128.76,483.428 128.009,484.859 127.235,486.251 L123.251,493.426 C120.836,497.761 117.608,502.376 113.429,505.175 C109.312,507.936 104.406,508.888 99.516,508.888 L94.863,508.888 C91.869,508.888 87.499,508.612 85.262,506.331 C82.514,503.511 83.783,499.08 85.152,495.925 C85.794,494.445 86.548,492.999 87.332,491.591 L91.316,484.417 C93.738,480.062 96.977,475.417 101.167,472.596 C105.21,469.875 110.137,469.003 114.933,469.003 L119.586,469.003 C122.596,469.003 126.949,469.285 129.221,471.545 C132.016,474.355 130.77,478.792 129.394,481.965 Z M114.529,481.866 C114.06,481.803 113.435,481.794 113.156,481.794 L111.411,481.794 C110.168,481.794 108.616,481.976 107.638,482.831 C106.704,483.645 105.402,485.957 104.792,487.035 L101.606,492.705 C101.123,493.566 100.603,494.486 100.209,495.391 C100.156,495.515 100.06,495.751 99.989,495.976 C100.458,496.04 101.084,496.049 101.363,496.049 L103.107,496.049 C104.38,496.049 105.887,495.856 106.886,495.006 C107.818,494.194 109.096,491.929 109.705,490.855 L112.891,485.185 C113.384,484.308 113.908,483.375 114.309,482.451 C114.362,482.327 114.458,482.091 114.529,481.866 Z M228.578,492.318 L219.613,508.451 L205.308,508.451 L227.003,469.439 L245.084,469.439 L243.065,485.509 L252.013,469.439 L266.317,469.439 L244.614,508.451 L226.447,508.451 L228.578,492.318 Z M408.706,492.373 C409.657,494.001 409.516,496.114 408.568,498.3 C408.44,498.594 408.288,498.883 408.138,499.164 C408.036,499.355 407.926,499.556 407.84,499.755 L407.804,499.839 L403.019,508.451 L388.08,508.451 L393.349,499.004 C393.432,498.855 393.52,498.697 393.588,498.542 L393.639,498.424 C393.494,498.419 393.361,498.418 393.27,498.418 L389.632,498.418 L384.069,508.451 L369.327,508.451 L391.022,469.439 L406.818,469.439 C409.509,469.439 413.658,469.523 416.149,470.616 C420.221,472.401 420.383,476.197 418.785,479.881 C418.46,480.631 418.072,481.366 417.676,482.081 L416.12,484.889 C414.314,488.167 411.878,490.76 408.706,492.373 Z M402.934,481.796 C402.809,481.794 402.696,481.794 402.612,481.794 L398.918,481.794 L396.574,485.967 L398.147,485.967 C398.869,485.967 399.786,485.887 400.43,485.528 C401.051,485.181 401.613,484.272 401.94,483.659 L402.655,482.346 C402.732,482.205 402.819,482.053 402.882,481.916 L402.934,481.796 Z M435.126,481.794 L434.445,483.011 L450.961,483.011 L444.664,494.347 L428.135,494.347 L427.161,496.097 L444.565,496.097 L437.672,508.451 L405.533,508.451 L427.228,469.439 L458.97,469.439 L452.146,481.794 L435.126,481.794 Z M479.157,484.12 C482.512,485.63 483.906,488.649 481.949,493.16 C481.824,493.448 481.674,493.732 481.525,494.01 C481.429,494.188 481.323,494.379 481.243,494.565 L481.207,494.648 L479.348,498.02 C477.525,501.346 475.007,504.048 471.756,506.001 C468.661,507.859 465.29,508.888 461.676,508.888 L453.969,508.888 C451.135,508.888 447.178,508.608 445.003,506.543 C442.593,504.362 442.952,501.334 444.29,498.651 L445.12,496.965 L447.26,493.092 L454.875,493.092 C451.669,491.501 450.826,488.268 452.697,483.953 C453.02,483.209 453.396,482.486 453.796,481.782 L455.014,479.646 C457.009,476.169 459.672,473.209 463.195,471.229 C466.401,469.447 470.478,469.003 474.088,469.003 L479.759,469.003 C482.904,469.003 487.249,469.45 488.936,472.558 C490.048,474.606 489.547,476.981 488.668,479.009 C488.474,479.456 488.269,479.915 488.033,480.338 L485.937,484.12 L479.157,484.12 Z M473.306,481.018 L471.339,481.018 C470.835,481.018 469.966,481.011 469.496,481.138 C469.048,481.269 468.769,481.525 468.54,481.914 L468.325,482.291 C468.462,482.31 468.598,482.328 468.732,482.346 L472.338,482.773 L473.306,481.018 Z M460.91,494.349 L459.609,496.708 C459.601,496.723 459.592,496.739 459.584,496.754 C459.931,496.774 460.29,496.776 460.493,496.776 L462.867,496.776 C463.886,496.776 465.202,496.631 465.761,495.657 L466.167,494.936 C466.042,494.923 465.927,494.911 465.831,494.9 L460.91,494.349 Z M514.2,484.12 C517.555,485.63 518.949,488.649 516.992,493.16 C516.867,493.448 516.717,493.732 516.568,494.01 C516.472,494.188 516.366,494.379 516.286,494.565 L516.25,494.648 L514.391,498.02 C512.568,501.346 510.05,504.048 506.799,506.001 C503.704,507.859 500.333,508.888 496.719,508.888 L489.012,508.888 C486.178,508.888 482.221,508.608 480.046,506.543 C477.636,504.362 477.995,501.334 479.333,498.651 L480.163,496.965 L482.303,493.092 L489.918,493.092 C486.712,491.501 485.87,488.268 487.74,483.953 C488.063,483.209 488.439,482.486 488.839,481.782 L490.057,479.646 C492.052,476.169 494.715,473.209 498.238,471.229 C501.444,469.447 505.521,469.003 509.131,469.003 L514.802,469.003 C517.947,469.003 522.292,469.45 523.979,472.558 C525.091,474.606 524.59,476.981 523.711,479.009 C523.517,479.456 523.312,479.915 523.076,480.338 L520.98,484.12 L514.2,484.12 Z M508.349,481.018 L506.382,481.018 C505.878,481.018 505.009,481.011 504.539,481.138 C504.091,481.269 503.812,481.525 503.583,481.914 L503.368,482.291 C503.505,482.31 503.641,482.328 503.775,482.346 L507.381,482.773 L508.349,481.018 Z M495.953,494.349 L494.652,496.708 C494.644,496.723 494.635,496.739 494.627,496.754 C494.974,496.774 495.333,496.776 495.536,496.776 L497.911,496.776 C498.929,496.776 500.245,496.631 500.804,495.657 L501.21,494.936 C501.085,494.923 500.97,494.911 500.874,494.9 L495.953,494.349 Z" id="Fill-34" stroke="none" fill="#FFFFFE" fill-rule="evenodd"></path>
                    <path d="M90.814,478.112 L90.003,479.76 L88.745,481.99 C86.807,485.415 84.17,487.547 80.833,488.388 C83.2,489.486 83.76,491.473 82.513,494.349 C82.344,494.737 82.195,495.044 82.065,495.27 L80.891,497.306 C78.66,501.183 75.933,503.784 72.709,505.109 C70.35,506.079 66.956,506.563 62.53,506.563 L45.711,506.563 L65.306,471.326 L82.367,471.326 C86.374,471.326 89.075,471.86 90.47,472.926 C91.866,473.992 91.981,475.721 90.814,478.112 Z M78.429,481.747 C79.17,480.487 78.748,479.857 77.165,479.857 L70.961,479.857 L68.103,484.995 L74.307,484.995 C75.793,484.995 76.907,484.365 77.647,483.104 L78.429,481.747 Z M71.814,494.543 C72.532,493.186 72.083,492.507 70.467,492.507 L63.924,492.507 L60.87,497.984 L67.413,497.984 C69.126,497.984 70.341,497.306 71.059,495.949 L71.814,494.543 Z" id="Fill-35" stroke="none" fill="#1A1919" fill-rule="evenodd"></path>
                    <path d="M127.663,481.214 C127.158,482.377 126.466,483.751 125.585,485.334 L121.602,492.507 C118.685,497.742 115.611,501.442 112.377,503.607 C109.006,505.868 104.718,507 99.516,507 L94.863,507 C90.663,507 87.912,506.337 86.613,505.012 C85.07,503.429 85.16,500.65 86.884,496.676 C87.402,495.48 88.102,494.091 88.982,492.507 L92.966,485.334 C95.896,480.067 98.981,476.343 102.221,474.162 C105.461,471.981 109.699,470.89 114.933,470.89 L119.586,470.89 C123.787,470.89 126.553,471.553 127.885,472.877 C129.46,474.461 129.386,477.24 127.663,481.214 Z M116.041,483.201 C116.643,481.812 116.655,480.891 116.083,480.439 C115.656,480.083 114.683,479.905 113.173,479.905 L111.436,479.905 C109.247,479.905 107.583,480.406 106.438,481.408 C105.659,482.087 104.575,483.654 103.195,486.109 L100.009,491.78 C99.301,493.041 98.807,493.994 98.527,494.64 C97.924,496.029 97.913,496.95 98.484,497.403 C98.911,497.758 99.884,497.936 101.395,497.936 L103.132,497.936 C105.289,497.936 106.952,497.435 108.129,496.433 C108.908,495.755 109.985,494.204 111.351,491.78 L114.537,486.109 C115.245,484.849 115.746,483.88 116.041,483.201 Z" id="Fill-36" stroke="none" fill="#1A1919" fill-rule="evenodd"></path>
                    <polyline id="Fill-37" stroke="none" fill="#1A1919" fill-rule="evenodd" points="182.891 471.326 163.296 506.563 153.118 506.563 165.417 484.462 146.914 506.563 136.687 506.563 142.908 484.171 130.434 506.563 120.256 506.563 139.859 471.326 154.569 471.326 148.347 494.801 168.205 471.326 182.891 471.326"></polyline>
                    <path d="M203.816,506.563 L192.62,506.563 L194.354,500.553 L184.03,500.553 L179.097,506.563 L167.901,506.563 L197.917,471.326 L213.233,471.326 L203.816,506.563 Z M196.859,492.653 L201.019,479.372 L190.413,492.653 L196.859,492.653 Z" id="Fill-38" stroke="none" fill="#1A1919" fill-rule="evenodd"></path>
                    <polyline id="Fill-39" stroke="none" fill="#1A1919" fill-rule="evenodd" points="263.107 471.326 243.512 506.563 228.624 506.563 231.784 482.66 218.51 506.563 208.518 506.563 228.113 471.326 242.944 471.326 239.978 494.931 253.122 471.326 263.107 471.326"></polyline>
                    <polyline id="Fill-40" stroke="none" fill="#1A1919" fill-rule="evenodd" points="311.527 471.326 306.789 479.905 289.776 479.905 286.981 484.898 303.509 484.898 299.309 492.459 282.781 492.459 279.707 497.984 297.107 497.984 292.32 506.563 264.499 506.563 284.094 471.326 311.527 471.326"></polyline>
                    <polyline id="Fill-41" stroke="none" fill="#1A1919" fill-rule="evenodd" points="350.254 471.326 332.282 488.291 331.434 506.563 319.559 506.563 320.918 494.155 308.266 506.563 296.44 506.563 316.212 488.242 317.392 471.326 329.122 471.326 327.604 482.426 338.476 471.326 350.254 471.326"></polyline>
                    <path d="M381.109,480.536 C380.773,481.311 380.323,482.2 379.759,483.201 L378.48,485.479 C376.011,489.906 373.117,493.041 369.798,494.882 C366.808,496.563 363.002,497.403 358.381,497.403 L351.79,497.403 L346.702,506.563 L336.281,506.563 L355.876,471.326 L372.889,471.326 C376.799,471.326 379.429,471.892 380.78,473.023 C382.555,474.445 382.665,476.949 381.109,480.536 Z M369.508,482.474 C370.237,480.794 369.47,479.954 367.209,479.954 L361.489,479.954 L356.577,488.824 L362.683,488.824 C364.073,488.824 365.115,488.581 365.81,488.097 C366.505,487.612 367.241,486.659 368.019,485.237 L369.123,483.25 C369.268,482.991 369.396,482.733 369.508,482.474 Z" id="Fill-42" stroke="none" fill="#1A1919" fill-rule="evenodd"></path>
                    <path d="M417.052,479.13 C416.814,479.679 416.471,480.358 416.024,481.166 L414.466,483.977 C412.187,488.113 409.024,490.714 404.974,491.78 C407.49,492.685 408.111,494.608 406.836,497.548 C406.765,497.71 406.644,497.952 406.472,498.275 C406.299,498.598 406.178,498.841 406.108,499.002 L401.908,506.563 L391.293,506.563 L394.997,499.923 C395.141,499.665 395.249,499.455 395.319,499.293 L395.445,499.002 C395.879,498 395.867,497.322 395.407,496.967 C395.08,496.676 394.368,496.53 393.269,496.53 L388.519,496.53 L382.957,506.563 L372.536,506.563 L392.131,471.326 L406.817,471.326 C410.985,471.326 413.843,471.666 415.391,472.344 C417.97,473.475 418.524,475.737 417.052,479.13 Z M404.612,482.668 L404.801,482.232 C405.222,481.263 405.202,480.6 404.742,480.245 C404.421,480.019 403.71,479.905 402.612,479.905 L397.813,479.905 L393.348,487.854 L398.147,487.854 C399.471,487.854 400.539,487.628 401.349,487.176 C402.159,486.723 402.909,485.851 403.599,484.558 L404.312,483.25 C404.47,482.959 404.57,482.765 404.612,482.668 Z" id="Fill-43" stroke="none" fill="#1A1919" fill-rule="evenodd"></path>
                    <polyline id="Fill-44" stroke="none" fill="#1A1919" fill-rule="evenodd" points="455.77 471.326 451.032 479.905 434.019 479.905 431.224 484.898 447.752 484.898 443.552 492.459 427.024 492.459 423.949 497.984 441.35 497.984 436.563 506.563 408.742 506.563 428.337 471.326 455.77 471.326"></polyline>
                    <path d="M486.935,478.258 C486.711,478.774 486.527,479.162 486.382,479.421 L484.823,482.232 L474.79,482.232 L475.245,481.408 C475.748,480.471 475.845,479.857 475.535,479.566 C475.225,479.275 474.552,479.13 473.518,479.13 L471.337,479.13 C470.239,479.13 469.452,479.194 468.975,479.324 C468.087,479.582 467.397,480.132 466.903,480.972 L466.1,482.377 C465.607,483.217 465.77,483.734 466.59,483.928 C466.918,483.993 467.555,484.09 468.5,484.219 L475.047,484.995 C480.37,485.609 482.093,488.081 480.216,492.41 C480.145,492.572 480.028,492.806 479.862,493.113 C479.697,493.42 479.579,493.654 479.509,493.816 L477.692,497.112 C475.991,500.214 473.688,502.637 470.783,504.382 C467.877,506.127 464.841,507 461.675,507 L453.968,507 C450.123,507 447.562,506.386 446.285,505.158 C444.842,503.865 444.741,501.975 445.981,499.487 L446.793,497.839 L448.372,494.979 L458.405,494.979 L457.951,495.803 C457.793,496.094 457.692,496.288 457.65,496.385 C457.23,497.354 457.363,498.017 458.049,498.372 C458.482,498.566 459.296,498.663 460.491,498.663 L462.867,498.663 C465.096,498.663 466.609,497.968 467.402,496.587 L468.248,495.084 C468.769,494.18 468.666,493.598 467.938,493.339 C467.57,493.218 466.941,493.105 466.046,493.008 L458.835,492.2 C453.954,491.683 452.487,489.179 454.432,484.696 C454.698,484.082 455.034,483.42 455.439,482.709 L456.654,480.576 C458.638,477.118 461.122,474.558 464.113,472.877 C466.497,471.553 469.821,470.89 474.087,470.89 L479.757,470.89 C486.673,470.89 489.065,473.346 486.935,478.258" id="Fill-45" stroke="none" fill="#1A1919" fill-rule="evenodd"></path>
                    <path d="M521.978,478.258 C521.754,478.774 521.57,479.162 521.425,479.421 L519.867,482.232 L509.833,482.232 L510.288,481.408 C510.791,480.471 510.888,479.857 510.578,479.566 C510.268,479.275 509.595,479.13 508.561,479.13 L506.38,479.13 C505.282,479.13 504.495,479.194 504.018,479.324 C503.131,479.582 502.44,480.132 501.946,480.972 L501.143,482.377 C500.65,483.217 500.813,483.734 501.633,483.928 C501.961,483.993 502.598,484.09 503.543,484.219 L510.09,484.995 C515.413,485.609 517.136,488.081 515.259,492.41 C515.188,492.572 515.071,492.806 514.905,493.113 C514.74,493.42 514.622,493.654 514.552,493.816 L512.735,497.112 C511.034,500.214 508.731,502.637 505.826,504.382 C502.92,506.127 499.884,507 496.718,507 L489.011,507 C485.166,507 482.605,506.386 481.328,505.158 C479.885,503.865 479.784,501.975 481.024,499.487 L481.836,497.839 L483.415,494.979 L493.448,494.979 L492.994,495.803 C492.836,496.094 492.735,496.288 492.693,496.385 C492.273,497.354 492.406,498.017 493.092,498.372 C493.525,498.566 494.339,498.663 495.534,498.663 L497.91,498.663 C500.139,498.663 501.652,497.968 502.445,496.587 L503.291,495.084 C503.812,494.18 503.709,493.598 502.981,493.339 C502.613,493.218 501.984,493.105 501.089,493.008 L493.878,492.2 C488.997,491.683 487.53,489.179 489.475,484.696 C489.741,484.082 490.077,483.42 490.482,482.709 L491.697,480.576 C493.682,477.118 496.165,474.558 499.156,472.877 C501.54,471.553 504.864,470.89 509.13,470.89 L514.8,470.89 C521.716,470.89 524.108,473.346 521.978,478.258" id="Fill-46" stroke="none" fill="#1A1919" fill-rule="evenodd"></path>
                    <polyline id="Fill-47" stroke="none" fill="#FFFFFE" fill-rule="evenodd" points="333.489 540.317 330.221 546.165 312.993 546.165 325.844 523.057 332.741 523.057 323.158 540.317 333.489 540.317"></polyline>
                    <path d="M363.146,529.541 C362.815,530.304 362.361,531.205 361.783,532.243 L359.171,536.947 C357.259,540.38 355.242,542.806 353.122,544.226 C350.91,545.71 348.099,546.451 344.687,546.451 L341.636,546.451 C338.881,546.451 337.077,546.017 336.225,545.148 C335.213,544.11 335.272,542.287 336.403,539.681 C336.743,538.897 337.201,537.986 337.779,536.947 L340.391,532.243 C342.313,528.789 344.336,526.347 346.461,524.916 C348.586,523.486 351.365,522.771 354.798,522.771 L357.849,522.771 C360.604,522.771 362.418,523.205 363.292,524.074 C364.325,525.112 364.276,526.934 363.146,529.541 Z M355.524,530.844 C355.919,529.933 355.927,529.329 355.552,529.032 C355.272,528.799 354.634,528.683 353.643,528.683 L352.504,528.683 C351.068,528.683 349.978,529.011 349.227,529.668 C348.716,530.113 348.005,531.141 347.1,532.751 L345.011,536.47 C344.546,537.297 344.222,537.922 344.038,538.346 C343.643,539.257 343.635,539.861 344.01,540.157 C344.29,540.391 344.929,540.507 345.919,540.507 L347.058,540.507 C348.473,540.507 349.564,540.179 350.336,539.522 C350.847,539.077 351.552,538.06 352.448,536.47 L354.538,532.751 C355.002,531.925 355.331,531.289 355.524,530.844 Z" id="Fill-48" stroke="none" fill="#FFFFFE" fill-rule="evenodd"></path>
                    <path d="M388.552,528.715 C388.423,529.011 388.311,529.244 388.217,529.414 L387.507,530.685 L380.673,530.685 C380.767,530.516 380.828,530.399 380.856,530.336 C381.168,529.615 381.078,529.138 380.586,528.905 C380.312,528.757 379.729,528.683 378.839,528.683 L377.282,528.683 C375.883,528.683 374.826,528.969 374.112,529.541 C373.529,530.007 372.768,531.077 371.83,532.751 L369.74,536.47 C369.276,537.297 368.957,537.911 368.782,538.314 C368.377,539.246 368.365,539.861 368.745,540.157 C369.025,540.391 369.674,540.507 370.691,540.507 L372.408,540.507 C373.383,540.507 374.123,540.412 374.63,540.221 C375.364,539.946 375.958,539.405 376.414,538.6 L376.711,538.06 L373.183,538.06 L375.882,533.228 L386.086,533.228 L383.785,537.361 C382.044,540.497 380.072,542.796 377.87,544.258 C375.668,545.72 372.998,546.451 369.862,546.451 L365.666,546.451 C360.856,546.451 359.553,543.908 361.759,538.823 L362.062,538.123 C362.126,537.975 362.4,537.466 362.883,536.597 L364.771,533.196 C366.684,529.763 368.755,527.21 370.986,525.536 C373.481,523.692 376.391,522.771 379.718,522.771 L383.087,522.771 C385.207,522.771 386.811,523.226 387.899,524.137 C389.189,525.218 389.406,526.744 388.552,528.715" id="Fill-49" stroke="none" fill="#FFFFFE" fill-rule="evenodd"></path>
                    <polyline id="Fill-50" stroke="none" fill="#FFFFFE" fill-rule="evenodd" points="403.052 523.057 390.202 546.165 383.304 546.165 396.155 523.057 403.052 523.057"></polyline>
                    <path d="M423.968,527.602 C423.82,527.941 423.699,528.195 423.605,528.365 L422.583,530.208 L416.003,530.208 L416.301,529.668 C416.631,529.054 416.695,528.651 416.491,528.46 C416.288,528.27 415.847,528.174 415.169,528.174 L413.738,528.174 C413.018,528.174 412.502,528.217 412.189,528.301 C411.607,528.471 411.154,528.831 410.83,529.382 L410.304,530.304 C409.98,530.855 410.087,531.194 410.626,531.321 C410.84,531.363 411.258,531.427 411.878,531.512 L416.171,532.02 C419.662,532.423 420.792,534.044 419.561,536.884 C419.515,536.989 419.438,537.143 419.329,537.345 C419.221,537.546 419.144,537.7 419.098,537.805 L417.906,539.967 C416.791,542.001 415.28,543.591 413.375,544.735 C411.469,545.879 409.478,546.451 407.401,546.451 L402.348,546.451 C399.826,546.451 398.146,546.049 397.309,545.243 C396.362,544.396 396.296,543.156 397.11,541.524 L397.642,540.444 L398.678,538.568 L405.258,538.568 L404.96,539.109 C404.856,539.299 404.79,539.426 404.762,539.49 C404.487,540.126 404.574,540.56 405.024,540.793 C405.308,540.921 405.842,540.984 406.626,540.984 L408.183,540.984 C409.646,540.984 410.638,540.529 411.158,539.623 L411.712,538.637 C412.054,538.044 411.986,537.662 411.509,537.493 C411.268,537.413 410.855,537.339 410.268,537.276 L405.539,536.746 C402.338,536.407 401.376,534.765 402.651,531.824 C402.826,531.422 403.046,530.987 403.312,530.521 L404.109,529.123 C405.411,526.855 407.039,525.176 409.001,524.074 C410.564,523.205 412.744,522.771 415.541,522.771 L419.26,522.771 C423.795,522.771 425.365,524.381 423.968,527.602" id="Fill-51" stroke="none" fill="#FFFFFE" fill-rule="evenodd"></path>
                    <polyline id="Fill-52" stroke="none" fill="#FFFFFE" fill-rule="evenodd" points="448.666 523.057 445.559 528.683 439.646 528.683 429.903 546.165 423.006 546.165 432.749 528.683 426.805 528.683 429.912 523.057 448.666 523.057"></polyline>
                    <polyline id="Fill-53" stroke="none" fill="#FFFFFE" fill-rule="evenodd" points="459.378 523.057 446.527 546.165 439.63 546.165 452.48 523.057 459.378 523.057"></polyline>
                    <path d="M480.459,528.905 C480.184,529.541 479.809,530.283 479.335,531.13 L478.909,531.893 L472.107,531.893 L472.519,531.162 C472.614,530.993 472.712,530.791 472.813,530.558 C473.355,529.308 472.736,528.683 470.956,528.683 C469.621,528.683 468.603,528.979 467.9,529.573 C467.328,530.06 466.583,531.12 465.663,532.751 L463.574,536.47 C463.109,537.297 462.785,537.922 462.602,538.346 C462.216,539.236 462.187,539.84 462.515,540.157 C462.795,540.391 463.412,540.507 464.366,540.507 C465.468,540.507 466.355,540.306 467.028,539.903 C467.7,539.501 468.33,538.77 468.917,537.71 L469.37,536.884 L476.3,536.884 L475.759,537.837 C474.015,540.931 472.093,543.14 469.992,544.465 C467.892,545.789 465.285,546.451 462.17,546.451 L460.072,546.451 C457.317,546.451 455.513,546.017 454.661,545.148 C453.649,544.11 453.708,542.287 454.839,539.681 C455.179,538.897 455.637,537.986 456.215,536.947 L458.827,532.243 C460.749,528.789 462.772,526.347 464.897,524.916 C467.022,523.486 469.801,522.771 473.234,522.771 L474.95,522.771 C477.62,522.771 479.403,523.131 480.299,523.851 C481.462,524.784 481.516,526.468 480.459,528.905" id="Fill-54" stroke="none" fill="#FFFFFE" fill-rule="evenodd"></path>
                    <path d="M503.688,527.602 C503.541,527.941 503.42,528.195 503.325,528.365 L502.303,530.208 L495.723,530.208 L496.021,529.668 C496.351,529.054 496.415,528.651 496.211,528.46 C496.008,528.27 495.567,528.174 494.889,528.174 L493.458,528.174 C492.738,528.174 492.222,528.217 491.91,528.301 C491.328,528.471 490.875,528.831 490.551,529.382 L490.024,530.304 C489.701,530.855 489.808,531.194 490.346,531.321 C490.561,531.363 490.978,531.427 491.598,531.512 L495.891,532.02 C499.383,532.423 500.512,534.044 499.281,536.884 C499.235,536.989 499.158,537.143 499.049,537.345 C498.941,537.546 498.864,537.7 498.818,537.805 L497.626,539.967 C496.511,542.001 495,543.591 493.095,544.735 C491.19,545.879 489.198,546.451 487.122,546.451 L482.068,546.451 C479.546,546.451 477.866,546.049 477.029,545.243 C476.083,544.396 476.016,543.156 476.83,541.524 L477.362,540.444 L478.398,538.568 L484.978,538.568 L484.68,539.109 C484.576,539.299 484.51,539.426 484.482,539.49 C484.207,540.126 484.294,540.56 484.744,540.793 C485.028,540.921 485.562,540.984 486.346,540.984 L487.903,540.984 C489.366,540.984 490.358,540.529 490.878,539.623 L491.432,538.637 C491.774,538.044 491.707,537.662 491.229,537.493 C490.988,537.413 490.575,537.339 489.989,537.276 L485.259,536.746 C482.058,536.407 481.096,534.765 482.372,531.824 C482.546,531.422 482.766,530.987 483.032,530.521 L483.829,529.123 C485.131,526.855 486.76,525.176 488.721,524.074 C490.284,523.205 492.464,522.771 495.261,522.771 L498.981,522.771 C503.515,522.771 505.085,524.381 503.688,527.602" id="Fill-55" stroke="none" fill="#FFFFFE" fill-rule="evenodd"></path>
                    <polyline id="Fill-56" stroke="none" fill="#FFFFFE" fill-rule="evenodd" points="303.436 525.932 302.251 532.65 311.521 532.636 301.535 536.775 300.39 543.485 295.403 539.324 285.425 543.485 292.328 536.775 287.307 532.636 296.561 532.65 303.436 525.932"></polyline>
                    <polyline id="Fill-57" stroke="none" fill="#FFFFFE" fill-rule="evenodd" points="272.386 525.932 271.201 532.65 280.471 532.636 270.485 536.775 269.339 543.485 264.352 539.324 254.374 543.485 261.278 536.775 256.258 532.636 265.511 532.65 272.386 525.932"></polyline>
                    <polyline id="Fill-58" stroke="none" fill="#FFFFFE" fill-rule="evenodd" points="241.336 525.932 240.151 532.65 249.421 532.636 239.435 536.775 238.289 543.485 233.302 539.324 223.324 543.485 230.228 536.775 225.207 532.636 234.461 532.65 241.336 525.932"></polyline>
                    <polyline id="Fill-59" stroke="none" fill="#FFFFFE" fill-rule="evenodd" points="210.286 525.932 209.101 532.65 218.37 532.636 208.385 536.775 207.239 543.485 202.252 539.324 192.274 543.485 199.178 536.775 194.157 532.636 203.411 532.65 210.286 525.932"></polyline>
                    <polyline id="Fill-60" stroke="none" fill="#FFFFFE" fill-rule="evenodd" points="179.235 525.932 178.051 532.65 187.32 532.636 177.335 536.775 176.189 543.485 171.202 539.324 161.224 543.485 168.128 536.775 163.107 532.636 172.361 532.65 179.235 525.932"></polyline>
                </g>
            </g>
        </g>
    </g>
</svg>