<?xml version="1.0" encoding="UTF-8"?>
<svg width="14px" height="18px" viewBox="0 0 14 18" version="1.1" xmlns="http://www.w3.org/2000/svg" xmlns:xlink="http://www.w3.org/1999/xlink">
    <!-- Generator: Sketch 51.2 (57519) - http://www.bohemiancoding.com/sketch -->
    <title>file-icon-dark</title>
    <desc>Created with Sketch.</desc>
    <defs></defs>
    <g id="Page-1" stroke="none" stroke-width="1" fill="none" fill-rule="evenodd">
        <g id="file-icon-dark" fill="#2D411A" fill-rule="nonzero">
            <path d="M8.16666667,4.78125 L8.16666667,0 L0.875,0 C0.390104167,0 0,0.376171875 0,0.84375 L0,17.15625 C0,17.6238281 0.390104167,18 0.875,18 L13.125,18 C13.6098958,18 14,17.6238281 14,17.15625 L14,5.625 L9.04166667,5.625 C8.56041667,5.625 8.16666667,5.2453125 8.16666667,4.78125 Z M10.5,13.078125 C10.5,13.3101562 10.303125,13.5 10.0625,13.5 L3.9375,13.5 C3.696875,13.5 3.5,13.3101562 3.5,13.078125 L3.5,12.796875 C3.5,12.5648437 3.696875,12.375 3.9375,12.375 L10.0625,12.375 C10.303125,12.375 10.5,12.5648437 10.5,12.796875 L10.5,13.078125 Z M10.5,10.828125 C10.5,11.0601562 10.303125,11.25 10.0625,11.25 L3.9375,11.25 C3.696875,11.25 3.5,11.0601562 3.5,10.828125 L3.5,10.546875 C3.5,10.3148437 3.696875,10.125 3.9375,10.125 L10.0625,10.125 C10.303125,10.125 10.5,10.3148437 10.5,10.546875 L10.5,10.828125 Z M10.5,8.296875 L10.5,8.578125 C10.5,8.81015625 10.303125,9 10.0625,9 L3.9375,9 C3.696875,9 3.5,8.81015625 3.5,8.578125 L3.5,8.296875 C3.5,8.06484375 3.696875,7.875 3.9375,7.875 L10.0625,7.875 C10.303125,7.875 10.5,8.06484375 10.5,8.296875 Z M14,4.28554687 L14,4.5 L9.33333333,4.5 L9.33333333,0 L9.55572917,0 C9.7890625,0 10.0114583,0.087890625 10.1755208,0.24609375 L13.7447917,3.69140625 C13.9088542,3.84960937 14,4.0640625 14,4.28554687 Z" id="Shape"></path>
        </g>
    </g>
</svg>