<?xml version="1.0" encoding="UTF-8"?>
<svg width="14px" height="18px" viewBox="0 0 14 18" version="1.1" xmlns="http://www.w3.org/2000/svg" xmlns:xlink="http://www.w3.org/1999/xlink">
    <!-- Generator: Sketch 50.2 (55047) - http://www.bohemiancoding.com/sketch -->
    <title>file-pdf-solid</title>
    <desc>Created with Sketch.</desc>
    <defs></defs>
    <g id="Page-1" stroke="none" stroke-width="1" fill="none" fill-rule="evenodd">
        <g id="file-pdf-solid" fill="#0B3662" fill-rule="nonzero">
            <path d="M6.63177083,9.00351563 C6.44947917,8.44101563 6.453125,7.3546875 6.55885417,7.3546875 C6.86510417,7.3546875 6.8359375,8.65195313 6.63177083,9.00351563 Z M6.56979167,10.6628906 C6.2890625,11.3730469 5.9390625,12.1851563 5.534375,12.8671875 C6.2015625,12.6210938 6.95625,12.2625 7.82760417,12.0972656 C7.36458333,11.7597656 6.91979167,11.2746094 6.56979167,10.6628906 Z M3.1390625,15.0503906 C3.1390625,15.0785156 3.6203125,14.8605469 4.41145833,13.6371094 C4.1671875,13.8585938 3.35052083,14.4984375 3.1390625,15.0503906 Z M9.04166667,5.625 L14,5.625 L14,17.15625 C14,17.6238281 13.6098958,18 13.125,18 L0.875,18 C0.390104167,18 0,17.6238281 0,17.15625 L0,0.84375 C0,0.376171875 0.390104167,0 0.875,0 L8.16666667,0 L8.16666667,4.78125 C8.16666667,5.2453125 8.56041667,5.625 9.04166667,5.625 Z M8.75,11.6648438 C8.02083333,11.2359375 7.5359375,10.6453125 7.19322917,9.7734375 C7.35729167,9.12304688 7.61614583,8.13515625 7.41927083,7.51640625 C7.24791667,6.4828125 5.8734375,6.58476563 5.6765625,7.27734375 C5.49427083,7.92070313 5.66197917,8.82773438 5.971875,9.984375 C5.54895833,10.9546875 4.92552083,12.2554688 4.484375,13.0007813 C4.48072917,13.0007813 4.48072917,13.0042969 4.47708333,13.0042969 C3.4890625,13.4929688 1.79375,14.56875 2.49010417,15.3949219 C2.69427083,15.6375 3.0734375,15.7464844 3.27395833,15.7464844 C3.9265625,15.7464844 4.57552083,15.1136719 5.5015625,13.5738281 C6.4421875,13.275 7.47395833,12.9023438 8.38177083,12.7582031 C9.17291667,13.1730469 10.0989583,13.44375 10.7151042,13.44375 C11.7796875,13.44375 11.8526042,12.31875 11.4333333,11.9179688 C10.9265625,11.4398438 9.45364583,11.5769531 8.75,11.6648438 Z M13.7447917,3.69140625 L10.171875,0.24609375 C10.0078125,0.087890625 9.78541667,0 9.55208333,0 L9.33333333,0 L9.33333333,4.5 L14,4.5 L14,4.28554688 C14,4.0640625 13.9088542,3.84960938 13.7447917,3.69140625 Z M11.0432292,12.6667969 C11.1927083,12.571875 10.9520833,12.2484375 9.4828125,12.3503906 C10.8354167,12.9058594 11.0432292,12.6667969 11.0432292,12.6667969 Z" id="Shape"></path>
        </g>
    </g>
</svg>