<?xml version="1.0" encoding="UTF-8"?>
<svg width="26px" height="26px" viewBox="0 0 26 26" version="1.1" xmlns="http://www.w3.org/2000/svg" xmlns:xlink="http://www.w3.org/1999/xlink">
    <!-- Generator: Sketch 49.2 (51160) - http://www.bohemiancoding.com/sketch -->
    <title>Artboard</title>
    <desc>Created with Sketch.</desc>
    <defs></defs>
    <g id="Artboard" stroke="none" stroke-width="1" fill="none" fill-rule="evenodd">
        <g id="phone" fill="#FFFFFF" fill-rule="nonzero">
            <path d="M25.0553164,1.24998047 L19.7740664,0.0313828125 C19.1995273,-0.101207031 18.6122422,0.196523437 18.3798164,0.738816406 L15.9423164,6.42616406 C15.7284212,6.92526313 15.8705142,7.50566593 16.2907773,7.84951172 L19.3689844,10.3680586 C17.5422305,14.2617109 14.3447891,17.5032305 10.3680586,19.3689336 L7.84951172,16.2907773 C7.50566593,15.8705142 6.92526313,15.7284212 6.42616406,15.9423164 L0.738816406,18.3798164 C0.196675781,18.6121406 -0.101257813,19.199375 0.0313828125,19.7740664 L1.24998047,25.0553164 C1.37662891,25.6041094 1.86610937,26 2.4375,26 C15.441918,26 26,15.4612656 26,2.4375 C26,1.86996875 25.6082734,1.37754297 25.0553164,1.24998047 Z" id="Shape"></path>
        </g>
    </g>
</svg>