<?xml version="1.0" encoding="UTF-8"?>
<svg width="14px" height="18px" viewBox="0 0 14 18" version="1.1" xmlns="http://www.w3.org/2000/svg" xmlns:xlink="http://www.w3.org/1999/xlink">
    <!-- Generator: Sketch 50.2 (55047) - http://www.bohemiancoding.com/sketch -->
    <title>file-upload-solid copy</title>
    <desc>Created with Sketch.</desc>
    <defs></defs>
    <g id="Page-1" stroke="none" stroke-width="1" fill="none" fill-rule="evenodd">
        <g id="file-upload-solid-copy" fill="#0B3662" fill-rule="nonzero">
            <path d="M8.16666667,4.78125 L8.16666667,0 L0.875,0 C0.390104167,0 0,0.376171875 0,0.84375 L0,17.15625 C0,17.6238281 0.390104167,18 0.875,18 L13.125,18 C13.6098958,18 14,17.6238281 14,17.15625 L14,5.625 L9.04166667,5.625 C8.56041667,5.625 8.16666667,5.2453125 8.16666667,4.78125 Z M10.5430208,12.3753516 L8.16666667,12.3753516 L8.16666667,15.1878516 C8.16666667,15.4986328 7.905625,15.7503516 7.58333333,15.7503516 L6.41666667,15.7503516 C6.094375,15.7503516 5.83333333,15.4986328 5.83333333,15.1878516 L5.83333333,12.3753516 L3.45697917,12.3753516 C2.93635417,12.3753516 2.67640625,11.7675 3.04609375,11.4134766 L6.56140625,8.04902344 C6.80385417,7.81664062 7.19541667,7.81664062 7.43786458,8.04902344 L10.9531771,11.4134766 C11.3232292,11.7675 11.0636458,12.3753516 10.5430208,12.3753516 Z M13.7447917,3.69140625 L10.1755208,0.24609375 C10.0114583,0.087890625 9.7890625,0 9.55572917,0 L9.33333333,0 L9.33333333,4.5 L14,4.5 L14,4.28554688 C14,4.0640625 13.9088542,3.84960938 13.7447917,3.69140625 Z" id="Shape"></path>
        </g>
    </g>
</svg>