<?xml version="1.0" encoding="UTF-8"?>
<svg width="384px" height="512px" viewBox="0 0 384 512" version="1.1" xmlns="http://www.w3.org/2000/svg" xmlns:xlink="http://www.w3.org/1999/xlink">
    <!-- Generator: Sketch 50.2 (55047) - http://www.bohemiancoding.com/sketch -->
    <title>file-upload-solid</title>
    <desc>Created with Sketch.</desc>
    <defs></defs>
    <g id="Page-1" stroke="none" stroke-width="1" fill="none" fill-rule="evenodd">
        <g id="file-upload-solid" fill="#B5984C" fill-rule="nonzero">
            <path d="M224,136 L224,0 L24,0 C10.7,0 0,10.7 0,24 L0,488 C0,501.3 10.7,512 24,512 L360,512 C373.3,512 384,501.3 384,488 L384,160 L248,160 C234.8,160 224,149.2 224,136 Z M289.18,352.01 L224,352.01 L224,432.01 C224,440.85 216.84,448.01 208,448.01 L176,448.01 C167.16,448.01 160,440.85 160,432.01 L160,352.01 L94.82,352.01 C80.54,352.01 73.41,334.72 83.55,324.65 L179.97,228.95 C186.62,222.34 197.36,222.34 204.01,228.95 L300.43,324.65 C310.58,334.72 303.46,352.01 289.18,352.01 Z M377,105 L279.1,7 C274.6,2.5 268.5,0 262.1,0 L256,0 L256,128 L384,128 L384,121.9 C384,115.6 381.5,109.5 377,105 Z" id="Shape"></path>
        </g>
    </g>
</svg>