<?xml version="1.0" encoding="UTF-8"?>
<svg width="26px" height="26px" viewBox="0 0 26 26" version="1.1" xmlns="http://www.w3.org/2000/svg" xmlns:xlink="http://www.w3.org/1999/xlink">
    <!-- Generator: Sketch 49.2 (51160) - http://www.bohemiancoding.com/sketch -->
    <title>Artboard</title>
    <desc>Created with Sketch.</desc>
    <defs></defs>
    <g id="Artboard" stroke="none" stroke-width="1" fill="none" fill-rule="evenodd">
        <g id="user-circle" fill="#FFFFFF" fill-rule="nonzero">
            <path d="M13,0 C5.82027823,0 0,5.82027823 0,13 C0,20.1797218 5.82027823,26 13,26 C20.1797218,26 26,20.1797218 26,13 C26,5.82027823 20.1797218,0 13,0 Z M13,2.51612903 C18.7900847,2.51612903 23.483871,7.20991532 23.483871,13 C23.483871,14.9385726 22.9571089,16.7538024 22.0398226,18.3115484 C21.6691129,16.9777903 20.6945847,15.47 18.6886532,14.8846855 C19.3535927,13.8272823 19.7096774,12.6023468 19.7096774,11.3225806 C19.7096774,7.61710887 16.7118669,4.61290323 13,4.61290323 C9.29452823,4.61290323 6.29032258,7.61076613 6.29032258,11.3225806 C6.29032258,12.6023468 6.64640726,13.8273347 7.31134677,14.8846855 C5.3037379,15.4704718 4.32994355,16.9768992 3.95975806,18.3109194 C3.04273387,16.7532782 2.51612903,14.9382581 2.51612903,13 C2.51612903,7.20991532 7.20991532,2.51612903 13,2.51612903 Z M17.1935484,11.3225806 C17.1935484,13.638625 15.3160444,15.516129 13,15.516129 C10.6839556,15.516129 8.80645161,13.638625 8.80645161,11.3225806 C8.80645161,9.00653629 10.6839556,7.12903226 13,7.12903226 C15.3160444,7.12903226 17.1935484,9.00653629 17.1935484,11.3225806 Z M6.29032258,21.0552298 L6.29032258,19.6001734 C6.29032258,18.5302944 6.99955645,17.589996 8.02833871,17.2960806 L9.31135484,16.9295121 C10.3969597,17.646871 11.6688105,18.0322581 13,18.0322581 C14.3311895,18.0322581 15.6030403,17.646871 16.6886976,16.9294597 L17.9717137,17.2960282 C19.0004435,17.589996 19.7096774,18.5302419 19.7096774,19.6001734 L19.7096774,21.0552298 C17.8915121,22.5713548 15.5524556,23.483871 13,23.483871 C10.4475444,23.483871 8.1084879,22.5713548 6.29032258,21.0552298 Z" id="Shape"></path>
        </g>
    </g>
</svg>