<?xml version="1.0" encoding="UTF-8"?>
<svg width="14px" height="18px" viewBox="0 0 14 18" version="1.1" xmlns="http://www.w3.org/2000/svg" xmlns:xlink="http://www.w3.org/1999/xlink">
    <!-- Generator: Sketch 51.2 (57519) - http://www.bohemiancoding.com/sketch -->
    <title>user-icon-dark</title>
    <desc>Created with Sketch.</desc>
    <defs></defs>
    <g id="Page-1" stroke="none" stroke-width="1" fill="none" fill-rule="evenodd">
        <g id="user-icon-dark" fill="#2D411A" fill-rule="nonzero">
            <path d="M11.996875,10.8386719 L12.74375,8.63789063 C12.86875,8.26875 12.628125,7.875 12.275,7.875 L10.446875,7.875 C10.790625,7.21054688 11.003125,6.44765625 11.003125,5.625 L11.003125,5.61445312 C12.228125,5.34023437 13.003125,4.94296875 13.003125,4.5 C13.003125,4.03242188 12.15,3.61757813 10.8125,3.33984375 C10.525,2.18671875 9.96875,1.0265625 9.54375,0.42890625 C9.246875,0.010546875 8.734375,-0.11953125 8.309375,0.11953125 L7.446875,0.6046875 C7.165625,0.762890625 6.834375,0.762890625 6.553125,0.6046875 L5.690625,0.11953125 C5.265625,-0.11953125 4.753125,0.010546875 4.45625,0.42890625 C4.034375,1.0265625 3.475,2.18671875 3.1875,3.33984375 C1.853125,3.61757812 1,4.03242187 1,4.5 C1,4.94296875 1.775,5.34023437 3,5.61445312 L3,5.625 C3,6.44765625 3.2125,7.21054687 3.55625,7.875 L1.759375,7.875 C1.4,7.875 1.159375,8.28632813 1.3,8.65898438 L2.10625,10.7753906 C0.853125,11.5945313 0,13.1027344 0,14.85 L0,16.425 C0,17.2933594 0.628125,18 1.4,18 L12.6,18 C13.371875,18 14,17.2933594 14,16.425 L14,14.85 C14,13.1484375 13.19375,11.671875 11.996875,10.8386719 Z M5.5,16.875 L4.2,10.125 L5.75,11.25 L6.5,12.65625 L5.5,16.875 Z M8.5,16.875 L7.5,12.65625 L8.25,11.25 L9.8,10.125 L8.5,16.875 Z M9.803125,6.38085937 C9.68125,6.79921875 9.584375,7.24570312 9.2875,7.55507812 C8.971875,7.88203125 7.7875,8.34257812 7.2875,6.67617187 C7.2,6.38085937 6.80625,6.38085937 6.715625,6.67617187 C6.184375,8.44101563 4.965625,7.81523438 4.715625,7.55507812 C4.41875,7.24570312 4.31875,6.79921875 4.2,6.38085937 C4.175,6.29296875 4.003125,6.18046875 4.003125,6.17695312 L4.003125,5.79726562 C4.8875,5.92382812 5.909375,6.00117187 7.003125,6.00117187 C8.096875,6.00117187 9.11875,5.92734375 10.003125,5.79726562 L10.003125,6.17695312 C10,6.18046875 9.828125,6.28945312 9.803125,6.38085937 Z" id="Shape"></path>
        </g>
    </g>
</svg>