<?xml version="1.0" encoding="UTF-8"?>
<svg width="198px" height="123px" viewBox="0 0 198 123" version="1.1" xmlns="http://www.w3.org/2000/svg" xmlns:xlink="http://www.w3.org/1999/xlink">
    <!-- Generator: Sketch 53.2 (72643) - https://sketchapp.com -->
    <title>Wexiö_Tooling_ORG</title>
    <desc>Created with Sketch.</desc>
    <g id="Page-1" stroke="none" stroke-width="1" fill="none" fill-rule="evenodd">
        <g id="Wexiö_Tooling_ORG">
            <polyline id="Fill-1" fill="#527846" points="0 0.113 32.109 99.268 56.718 99.268 33.733 0.113 0 0.113"></polyline>
            <polyline id="Fill-3" fill="#527846" points="87.668 0.153 64.783 0.255 50.338 64.011 58.511 99.268 65.915 99.268 80.059 40.001 93.779 99.268 119.444 99.268 96.459 0.114 87.668 0.153"></polyline>
            <polyline id="Fill-4" fill="#414241" points="161.783 0.113 136.855 76.158 136.855 99.269 169.669 99.269 169.669 82.462 167.694 86.242 166.207 80.936 162.704 85.176 162.347 79.674 158.043 83.089 158.832 77.633 153.915 80.074 155.817 74.902 150.501 76.262 153.43 71.601 147.951 71.82 151.78 67.871 146.374 66.941 150.936 63.88 145.841 61.839 150.936 59.798 146.374 56.737 151.78 55.806 147.951 51.859 153.43 52.077 150.501 47.416 155.817 48.775 153.915 43.604 158.832 46.045 158.043 40.589 162.347 44.004 162.704 38.502 166.207 42.742 167.694 37.435 169.669 41.215 169.669 25.998 197.958 25.998 197.958 0.113 161.783 0.113"></polyline>
            <polyline id="Fill-5" fill="#527846" points="159.976 0.113 126.467 0.113 125.355 4.971 112.529 61.704 121.236 99.268 127.585 99.268 159.976 0.113"></polyline>
            <polyline id="Fill-6" fill="#414241" points="98.459 0.114 104.459 25.998 118.913 25.998 124.841 0.113 98.459 0.114"></polyline>
            <polyline id="Fill-7" fill="#1A1919" points="34.535 109.964 35.3 109.964 38.258 118.057 41.199 109.964 41.964 109.964 44.922 118.057 47.863 109.964 48.611 109.964 45.262 118.821 44.531 118.821 41.59 110.899 38.615 118.821 37.884 118.821 34.535 109.964"></polyline>
            <path d="M59.151,113.959 C59.083,112.939 58.737,112.123 58.114,111.512 C57.491,110.899 56.681,110.594 55.683,110.594 C54.686,110.594 53.858,110.902 53.201,111.52 C52.544,112.138 52.17,112.951 52.079,113.959 L59.151,113.959 Z M57.902,110.534 C58.531,110.925 59.007,111.472 59.329,112.174 C59.653,112.877 59.808,113.682 59.797,114.588 L52.062,114.588 C52.096,115.303 52.272,115.932 52.589,116.476 C52.906,117.02 53.337,117.441 53.881,117.742 C54.425,118.042 55.037,118.192 55.717,118.192 C56.318,118.192 56.876,118.088 57.391,117.878 C57.907,117.668 58.347,117.365 58.709,116.969 L59.117,117.428 C58.698,117.881 58.193,118.229 57.604,118.473 C57.015,118.717 56.374,118.838 55.683,118.838 C54.856,118.838 54.113,118.648 53.456,118.269 C52.799,117.89 52.286,117.362 51.918,116.688 C51.549,116.014 51.365,115.251 51.365,114.401 C51.365,113.552 51.552,112.786 51.926,112.106 C52.3,111.427 52.813,110.896 53.465,110.517 C54.116,110.138 54.856,109.947 55.683,109.947 C56.533,109.947 57.273,110.143 57.902,110.534 L57.902,110.534 Z" id="Fill-8" fill="#1A1919"></path>
            <polyline id="Fill-9" fill="#1A1919" points="62.975 109.964 63.791 109.964 66.529 113.722 69.265 109.964 70.065 109.964 66.971 114.248 70.285 118.821 69.47 118.821 66.512 114.792 63.536 118.821 62.721 118.821 66.07 114.248 62.975 109.964"></polyline>
            <path d="M74.79,118.821 L75.487,118.821 L75.487,109.964 L74.79,109.964 L74.79,118.821 Z M75.564,106.98 C75.683,107.1 75.743,107.244 75.743,107.414 C75.743,107.596 75.683,107.746 75.564,107.865 C75.445,107.983 75.306,108.043 75.147,108.043 C74.989,108.043 74.85,107.983 74.731,107.865 C74.612,107.746 74.552,107.596 74.552,107.414 C74.552,107.244 74.612,107.1 74.731,106.98 C74.85,106.861 74.989,106.803 75.147,106.803 C75.306,106.803 75.445,106.861 75.564,106.98 L75.564,106.98 Z" id="Fill-10" fill="#1A1919"></path>
            <path d="M86.41,107.006 C86.517,107.12 86.571,107.262 86.571,107.432 C86.571,107.59 86.515,107.729 86.401,107.848 C86.288,107.967 86.158,108.026 86.01,108.026 C85.851,108.026 85.716,107.967 85.602,107.848 C85.489,107.729 85.432,107.59 85.432,107.432 C85.432,107.262 85.489,107.12 85.602,107.006 C85.716,106.894 85.851,106.836 86.01,106.836 C86.169,106.836 86.302,106.894 86.41,107.006 Z M83.749,107.006 C83.863,107.12 83.919,107.262 83.919,107.432 C83.919,107.59 83.863,107.729 83.749,107.848 C83.636,107.967 83.5,108.026 83.341,108.026 C83.194,108.026 83.063,107.967 82.95,107.848 C82.837,107.729 82.78,107.59 82.78,107.432 C82.78,107.262 82.834,107.12 82.942,107.006 C83.049,106.894 83.182,106.836 83.341,106.836 C83.5,106.836 83.636,106.894 83.749,107.006 Z M82.78,111.104 C82.225,111.421 81.788,111.865 81.471,112.438 C81.154,113.01 80.995,113.659 80.995,114.385 C80.995,115.121 81.154,115.778 81.471,116.356 C81.788,116.935 82.225,117.382 82.78,117.699 C83.335,118.017 83.964,118.175 84.667,118.175 C85.37,118.175 86.002,118.017 86.563,117.699 C87.124,117.382 87.56,116.935 87.872,116.356 C88.183,115.778 88.339,115.121 88.339,114.385 C88.339,113.659 88.183,113.01 87.872,112.438 C87.56,111.865 87.124,111.421 86.563,111.104 C86.002,110.786 85.37,110.627 84.667,110.627 C83.964,110.627 83.335,110.786 82.78,111.104 Z M86.92,110.517 C87.583,110.896 88.101,111.424 88.475,112.098 C88.849,112.772 89.036,113.534 89.036,114.385 C89.036,115.246 88.849,116.014 88.475,116.688 C88.101,117.362 87.583,117.89 86.92,118.269 C86.257,118.648 85.506,118.838 84.667,118.838 C83.84,118.838 83.094,118.648 82.432,118.269 C81.769,117.89 81.247,117.362 80.868,116.688 C80.488,116.014 80.298,115.246 80.298,114.385 C80.298,113.534 80.488,112.772 80.868,112.098 C81.247,111.424 81.769,110.896 82.432,110.517 C83.094,110.138 83.84,109.947 84.667,109.947 C85.506,109.947 86.257,110.138 86.92,110.517 L86.92,110.517 Z" id="Fill-11" fill="#1A1919"></path>
            <path d="M105.084,118.209 C104.46,118.629 103.831,118.838 103.197,118.838 C102.562,118.838 102.075,118.632 101.735,118.218 C101.395,117.805 101.225,117.189 101.225,116.373 L101.225,110.797 L99.933,110.797 L99.933,110.186 L101.225,110.186 L101.225,107.992 L101.905,107.992 L101.905,110.186 L104.914,110.186 L104.914,110.797 L101.905,110.797 L101.905,116.288 C101.905,117.523 102.364,118.142 103.282,118.142 C103.803,118.142 104.313,117.972 104.812,117.631 L105.084,118.209" id="Fill-12" fill="#1A1919"></path>
            <path d="M110.83,111.104 C110.275,111.421 109.838,111.865 109.521,112.438 C109.203,113.01 109.045,113.659 109.045,114.385 C109.045,115.121 109.203,115.778 109.521,116.356 C109.838,116.935 110.275,117.382 110.83,117.699 C111.385,118.017 112.014,118.175 112.717,118.175 C113.42,118.175 114.052,118.017 114.613,117.699 C115.174,117.382 115.61,116.935 115.922,116.356 C116.233,115.778 116.389,115.121 116.389,114.385 C116.389,113.659 116.233,113.01 115.922,112.438 C115.61,111.865 115.174,111.421 114.613,111.104 C114.052,110.786 113.42,110.627 112.717,110.627 C112.014,110.627 111.385,110.786 110.83,111.104 Z M114.97,110.517 C115.633,110.896 116.151,111.424 116.525,112.098 C116.899,112.772 117.086,113.534 117.086,114.385 C117.086,115.246 116.899,116.014 116.525,116.688 C116.151,117.362 115.633,117.89 114.97,118.269 C114.306,118.648 113.555,118.838 112.717,118.838 C111.889,118.838 111.144,118.648 110.482,118.269 C109.819,117.89 109.297,117.362 108.918,116.688 C108.538,116.014 108.348,115.246 108.348,114.385 C108.348,113.534 108.538,112.772 108.918,112.098 C109.297,111.424 109.819,110.896 110.482,110.517 C111.144,110.138 111.889,109.947 112.717,109.947 C113.555,109.947 114.306,110.138 114.97,110.517 L114.97,110.517 Z" id="Fill-13" fill="#1A1919"></path>
            <path d="M123.409,111.104 C122.854,111.421 122.418,111.865 122.1,112.438 C121.783,113.01 121.625,113.659 121.625,114.385 C121.625,115.121 121.783,115.778 122.1,116.356 C122.418,116.935 122.854,117.382 123.409,117.699 C123.965,118.017 124.594,118.175 125.297,118.175 C125.999,118.175 126.632,118.017 127.193,117.699 C127.753,117.382 128.191,116.935 128.501,116.356 C128.814,115.778 128.97,115.121 128.97,114.385 C128.97,113.659 128.814,113.01 128.501,112.438 C128.191,111.865 127.753,111.421 127.193,111.104 C126.632,110.786 125.999,110.627 125.297,110.627 C124.594,110.627 123.965,110.786 123.409,111.104 Z M127.55,110.517 C128.212,110.896 128.732,111.424 129.105,112.098 C129.48,112.772 129.665,113.534 129.665,114.385 C129.665,115.246 129.48,116.014 129.105,116.688 C128.732,117.362 128.212,117.89 127.55,118.269 C126.886,118.648 126.136,118.838 125.297,118.838 C124.469,118.838 123.724,118.648 123.061,118.269 C122.398,117.89 121.877,117.362 121.497,116.688 C121.117,116.014 120.928,115.246 120.928,114.385 C120.928,113.534 121.117,112.772 121.497,112.098 C121.877,111.424 122.398,110.896 123.061,110.517 C123.724,110.138 124.469,109.947 125.297,109.947 C126.136,109.947 126.886,110.138 127.55,110.517 L127.55,110.517 Z" id="Fill-14" fill="#1A1919"></path>
            <polygon id="Fill-15" fill="#1A1919" points="134.544 118.821 135.259 118.821 135.259 106.207 134.544 106.207"></polygon>
            <path d="M141.089,118.821 L141.786,118.821 L141.786,109.964 L141.089,109.964 L141.089,118.821 Z M141.863,106.98 C141.982,107.1 142.041,107.244 142.041,107.414 C142.041,107.596 141.982,107.746 141.863,107.865 C141.744,107.983 141.605,108.043 141.447,108.043 C141.287,108.043 141.149,107.983 141.031,107.865 C140.911,107.746 140.852,107.596 140.852,107.414 C140.852,107.244 140.911,107.1 141.031,106.98 C141.149,106.861 141.287,106.803 141.447,106.803 C141.605,106.803 141.744,106.861 141.863,106.98 L141.863,106.98 Z" id="Fill-16" fill="#1A1919"></path>
            <path d="M154.409,110.874 C155.015,111.491 155.319,112.339 155.319,113.415 L155.319,118.821 L154.605,118.821 L154.605,113.552 C154.605,112.645 154.35,111.937 153.839,111.427 C153.329,110.916 152.621,110.661 151.714,110.661 C150.705,110.685 149.898,110.993 149.292,111.588 C148.686,112.183 148.343,112.996 148.264,114.027 L148.264,118.821 L147.549,118.821 L147.549,109.964 L148.264,109.964 L148.264,112.226 C148.558,111.5 149.014,110.944 149.632,110.56 C150.249,110.174 151,109.97 151.884,109.947 C152.961,109.947 153.803,110.256 154.409,110.874" id="Fill-17" fill="#1A1919"></path>
            <path d="M165.816,117.385 C166.354,117.073 166.776,116.643 167.082,116.093 C167.388,115.543 167.541,114.923 167.541,114.231 C167.541,113.54 167.388,112.917 167.082,112.361 C166.776,111.806 166.354,111.373 165.816,111.061 C165.278,110.749 164.674,110.594 164.005,110.594 C163.336,110.594 162.733,110.749 162.195,111.061 C161.657,111.373 161.237,111.806 160.937,112.361 C160.636,112.917 160.486,113.54 160.486,114.231 C160.486,114.923 160.636,115.543 160.937,116.093 C161.237,116.643 161.654,117.073 162.186,117.385 C162.719,117.696 163.326,117.853 164.005,117.853 C164.674,117.853 165.278,117.696 165.816,117.385 Z M168.221,109.964 L168.221,117.853 C168.221,118.714 168.045,119.468 167.694,120.113 C167.343,120.76 166.844,121.258 166.199,121.609 C165.552,121.96 164.798,122.137 163.937,122.137 C163.245,122.137 162.609,122.015 162.025,121.771 C161.441,121.527 160.883,121.167 160.35,120.691 L160.724,120.164 C161.201,120.595 161.696,120.921 162.211,121.142 C162.727,121.362 163.297,121.474 163.92,121.474 C165.019,121.474 165.898,121.147 166.555,120.496 C167.212,119.844 167.541,118.969 167.541,117.869 L167.541,116.187 C167.235,116.9 166.765,117.459 166.13,117.86 C165.495,118.264 164.759,118.464 163.92,118.464 C163.138,118.464 162.435,118.283 161.812,117.92 C161.189,117.558 160.701,117.054 160.35,116.407 C159.998,115.762 159.824,115.03 159.824,114.214 C159.824,113.398 159.998,112.667 160.35,112.021 C160.701,111.375 161.186,110.868 161.804,110.5 C162.421,110.132 163.121,109.947 163.904,109.947 C164.742,109.947 165.478,110.151 166.114,110.56 C166.747,110.968 167.224,111.528 167.541,112.242 L167.541,109.964 L168.221,109.964 L168.221,109.964 Z" id="Fill-18" fill="#1A1919"></path>
        </g>
    </g>
</svg>