<svg id="Lager_1" data-name="Lager 1" xmlns="http://www.w3.org/2000/svg" viewBox="0 0 197.96 121.71"><defs><style>.cls-1{fill:#688649;}.cls-2{fill:#fff;}</style></defs><title>woodtechnique_logo_neg</title><polygon class="cls-1" points="0 0 32.11 99.15 56.72 99.15 33.73 0 0 0"/><polygon class="cls-1" points="87.67 0.04 64.78 0.14 50.34 63.9 58.51 99.15 65.92 99.15 80.06 39.89 93.78 99.15 119.44 99.15 102.46 25.89 96.46 0 87.67 0.04"/><path class="cls-2" d="M48.68,128.54l-2.48-6.68-2.51,6.68h-.61l-2.83-7.47h.65l2.49,6.83,2.48-6.83h.65L49,127.9l2.48-6.83h.64l-2.83,7.47Z" transform="translate(-7.5 -9.61)"/><path class="cls-2" d="M61.8,124.8a3.69,3.69,0,1,1-3.69-3.74A3.58,3.58,0,0,1,61.8,124.8Zm-6.79,0a3.1,3.1,0,1,0,3.1-3.19A3,3,0,0,0,55,124.82Z" transform="translate(-7.5 -9.61)"/><path class="cls-2" d="M72.17,124.8a3.69,3.69,0,1,1-3.69-3.74A3.58,3.58,0,0,1,72.17,124.8Zm-6.79,0a3.1,3.1,0,1,0,3.1-3.19A3,3,0,0,0,65.38,124.82Z" transform="translate(-7.5 -9.61)"/><path class="cls-2" d="M82.6,128.54H82v-1.95a3.37,3.37,0,0,1-3.19,2,3.78,3.78,0,0,1,0-7.56,3.38,3.38,0,0,1,3.2,2V117.9h.6Zm-.6-3.72A3.12,3.12,0,1,0,78.88,128,3.06,3.06,0,0,0,82,124.82Z" transform="translate(-7.5 -9.61)"/><path class="cls-2" d="M96.59,128a2.77,2.77,0,0,1-1.57.53c-1.06,0-1.69-.68-1.69-2.08v-4.7H92.24v-.52h1.09v-1.85h.58v1.85h2.53v.52H93.91v4.63c0,1.06.41,1.58,1.19,1.56a2.25,2.25,0,0,0,1.26-.43Z" transform="translate(-7.5 -9.61)"/><path class="cls-2" d="M106.34,125H99.82a3,3,0,0,0,3.08,3,3.35,3.35,0,0,0,2.52-1l.35.39a3.9,3.9,0,0,1-2.9,1.19,3.75,3.75,0,0,1,0-7.5C105.07,121.06,106.39,122.66,106.34,125Zm-.54-.53a2.83,2.83,0,0,0-2.93-2.84,3,3,0,0,0-3,2.84Z" transform="translate(-7.5 -9.61)"/><path class="cls-2" d="M115.63,122.1l-.35.44a3.32,3.32,0,0,0-2.31-.91,3.19,3.19,0,0,0,0,6.37,3.09,3.09,0,0,0,2.44-1l.36.39a3.62,3.62,0,0,1-2.81,1.22,3.75,3.75,0,0,1,0-7.5A3.76,3.76,0,0,1,115.63,122.1Z" transform="translate(-7.5 -9.61)"/><path class="cls-2" d="M126.39,124v4.56h-.61V124.1a2.23,2.23,0,0,0-2.44-2.44c-1.85,0-2.92,1.28-2.92,3.23v3.65h-.6V117.9h.6V123a3.09,3.09,0,0,1,3.07-2A2.68,2.68,0,0,1,126.39,124Z" transform="translate(-7.5 -9.61)"/><path class="cls-2" d="M137.3,124v4.56h-.6V124.1a2.23,2.23,0,0,0-2.44-2.44,2.82,2.82,0,0,0-2.91,2.84v4h-.6v-7.47h.6V123a3.1,3.1,0,0,1,3.06-1.92A2.67,2.67,0,0,1,137.3,124Z" transform="translate(-7.5 -9.61)"/><path class="cls-2" d="M142.47,118.92a.5.5,0,1,1-.5-.52A.51.51,0,0,1,142.47,118.92Zm-.8,9.62v-7.47h.58v7.47Z" transform="translate(-7.5 -9.61)"/><path class="cls-2" d="M153.5,131.33h-.6v-4.74a3.37,3.37,0,0,1-3.19,2,3.78,3.78,0,0,1,0-7.56,3.38,3.38,0,0,1,3.2,2v-2h.6Zm-.6-6.51a3.12,3.12,0,1,0-3.11,3.21A3.06,3.06,0,0,0,152.9,124.82Z" transform="translate(-7.5 -9.61)"/><path class="cls-2" d="M164.38,128.54h-.59v-2a3,3,0,0,1-3,2,2.64,2.64,0,0,1-2.85-2.93v-4.56h.58v4.45a2.22,2.22,0,0,0,2.4,2.44c1.81,0,2.87-1.28,2.87-3.23v-3.66h.59Z" transform="translate(-7.5 -9.61)"/><path class="cls-2" d="M175.31,125h-6.53a3,3,0,0,0,3.09,3,3.36,3.36,0,0,0,2.52-1l.34.39a3.86,3.86,0,0,1-2.89,1.19,3.75,3.75,0,0,1,0-7.5C174,121.06,175.35,122.66,175.31,125Zm-.55-.53a2.82,2.82,0,0,0-2.92-2.84,3,3,0,0,0-3,2.84Z" transform="translate(-7.5 -9.61)"/><polygon class="cls-2" points="161.78 0 136.85 76.05 136.85 99.16 169.67 99.16 169.67 82.35 167.69 86.13 166.21 80.82 162.7 85.06 162.35 79.56 158.04 82.98 158.83 77.52 153.91 79.96 155.82 74.79 150.5 76.15 153.43 71.49 147.95 71.71 151.78 67.76 146.37 66.83 150.94 63.77 145.84 61.73 150.94 59.69 146.37 56.62 151.78 55.69 147.95 51.75 153.43 51.96 150.5 47.3 155.82 48.66 153.91 43.49 158.83 45.93 158.04 40.48 162.35 43.89 162.7 38.39 166.21 42.63 167.69 37.32 169.67 41.1 169.67 25.89 197.96 25.89 197.96 0 161.78 0"/><polygon class="cls-1" points="159.98 0 159.95 0 126.47 0 125.36 4.86 112.53 61.59 121.24 99.15 127.44 99.15 127.58 99.15 159.98 0"/><polygon class="cls-2" points="98.46 0 104.46 25.89 118.91 25.89 124.84 0 98.46 0"/></svg>