<?xml version="1.0" encoding="UTF-8"?>
<svg width="198px" height="122px" viewBox="0 0 198 122" version="1.1" xmlns="http://www.w3.org/2000/svg" xmlns:xlink="http://www.w3.org/1999/xlink">
    <!-- Generator: Sketch 51.2 (57519) - http://www.bohemiancoding.com/sketch -->
    <title>woodtechnique_logo_groen</title>
    <desc>Created with Sketch.</desc>
    <defs></defs>
    <g id="Page-1" stroke="none" stroke-width="1" fill="none" fill-rule="evenodd">
        <g id="woodtechnique_logo_groen" fill-rule="nonzero">
            <polygon id="Shape" fill="#688649" points="0 0 32.11 99.15 56.72 99.15 33.73 0"></polygon>
            <polygon id="Shape" fill="#688649" points="87.67 0.04 64.78 0.14 50.34 63.9 58.51 99.15 65.92 99.15 80.06 39.89 93.78 99.15 119.44 99.15 102.46 25.89 96.46 0"></polygon>
            <polygon id="Shape" fill="#4A4A49" points="41.18 118.93 38.7 112.25 36.19 118.93 35.58 118.93 32.75 111.46 33.4 111.46 35.89 118.29 38.37 111.46 39.02 111.46 41.5 118.29 43.98 111.46 44.62 111.46 41.79 118.93"></polygon>
            <path d="M54.3,115.19 C54.2724745,117.221194 52.6084162,118.848139 50.5771178,118.82985 C48.5458193,118.811562 46.9113243,117.154919 46.9203754,115.123559 C46.9294265,113.092198 48.5786192,111.450186 50.61,111.45 C51.6068052,111.418337 52.5716366,111.803912 53.2720783,112.513845 C53.9725199,113.223778 54.3450752,114.193711 54.3,115.19 Z M47.51,115.19 C47.559361,116.889491 48.9683693,118.232098 50.6682626,118.199427 C52.368156,118.166756 53.7245343,116.770999 53.7085564,115.070867 C53.6925784,113.370735 52.3102071,112.000717 50.61,112 C49.7576631,111.966585 48.9314009,112.29758 48.3378627,112.910203 C47.7443244,113.522826 47.4396358,114.359147 47.5,115.21 L47.51,115.19 Z" id="Shape" fill="#4A4A49"></path>
            <path d="M64.67,115.19 C64.6424745,117.221194 62.9784162,118.848139 60.9471178,118.82985 C58.9158193,118.811562 57.2813243,117.154919 57.2903754,115.123559 C57.2994265,113.092198 58.9486192,111.450186 60.98,111.45 C61.9768052,111.418337 62.9416366,111.803912 63.6420783,112.513845 C64.3425199,113.223778 64.7150752,114.193711 64.67,115.19 Z M57.88,115.19 C57.929361,116.889491 59.3383693,118.232098 61.0382626,118.199427 C62.738156,118.166756 64.0945343,116.770999 64.0785564,115.070867 C64.0625784,113.370735 62.6802071,112.000717 60.98,112 C60.1293689,111.969501 59.3058239,112.301777 58.7145325,112.91405 C58.123241,113.526323 57.819871,114.360949 57.88,115.21 L57.88,115.19 Z" id="Shape" fill="#4A4A49"></path>
            <path d="M75.1,118.93 L74.5,118.93 L74.5,116.98 C73.942953,118.233893 72.6813261,119.024882 71.31,118.98 C69.2223636,118.98 67.53,117.287636 67.53,115.2 C67.53,113.112364 69.2223636,111.42 71.31,111.42 C72.6841694,111.37375 73.949409,112.164525 74.51,113.42 L74.51,108.29 L75.11,108.29 L75.1,118.93 Z M74.5,115.21 C74.4670144,113.49507 73.0558759,112.128369 71.3407679,112.150254 C69.6256599,112.172139 68.2498543,113.574403 68.2606386,115.289617 C68.271423,117.00483 69.6647524,118.389683 71.38,118.39 C72.2231505,118.407191 73.0360183,118.075652 73.6266337,117.473678 C74.217249,116.871705 74.5332468,116.05267 74.5,115.21 Z" id="Shape" fill="#4A4A49"></path>
            <path d="M89.09,118.39 C88.6330063,118.722727 88.0851535,118.907671 87.52,118.92 C86.46,118.92 85.83,118.24 85.83,116.84 L85.83,112.14 L84.74,112.14 L84.74,111.62 L85.83,111.62 L85.83,109.77 L86.41,109.77 L86.41,111.62 L88.94,111.62 L88.94,112.14 L86.41,112.14 L86.41,116.77 C86.41,117.83 86.82,118.35 87.6,118.33 C88.0537606,118.317053 88.4929934,118.167156 88.86,117.9 L89.09,118.39 Z" id="Shape" fill="#4A4A49"></path>
            <path d="M98.84,115.39 L92.32,115.39 C92.3197121,116.199706 92.6467406,116.975147 93.2267728,117.540113 C93.806805,118.10508 94.5905816,118.411592 95.4,118.39 C96.3433827,118.426651 97.2584365,118.063534 97.92,117.39 L98.27,117.78 C97.5123031,118.56479 96.4605526,118.996371 95.37,118.97 C93.2989322,118.97 91.62,117.291068 91.62,115.22 C91.62,113.148932 93.2989322,111.47 95.37,111.47 C97.57,111.45 98.89,113.05 98.84,115.39 Z M98.3000245,114.86 C98.3032018,114.090052 97.992549,113.352037 97.4396839,112.816154 C96.8868187,112.280271 96.1394737,111.992786 95.37,112.02 C93.7736703,112.017728 92.4551361,113.265941 92.37,114.86 L98.3000245,114.86 Z" id="Shape" fill="#4A4A49"></path>
            <path d="M108.13,112.49 L107.78,112.93 C107.156666,112.339334 106.328711,112.01317 105.47,112.02 C103.780226,112.114721 102.458536,113.512573 102.458536,115.205 C102.458536,116.897427 103.780226,118.295279 105.47,118.39 C106.391874,118.437867 107.286869,118.071066 107.91,117.39 L108.27,117.78 C107.56004,118.582483 106.531059,119.029229 105.46,119 C103.388932,119 101.71,117.321068 101.71,115.25 C101.71,113.178932 103.388932,111.5 105.46,111.5 C106.445375,111.467183 107.404216,111.822708 108.13,112.49 Z" id="Shape" fill="#4A4A49"></path>
            <path d="M118.89,114.39 L118.89,118.95 L118.28,118.95 L118.28,114.49 C118.346246,113.824762 118.110544,113.164897 117.637824,112.692176 C117.165103,112.219456 116.505238,111.983754 115.84,112.05 C113.99,112.05 112.92,113.33 112.92,115.28 L112.92,118.93 L112.32,118.93 L112.32,108.29 L112.92,108.29 L112.92,113.39 C113.395078,112.123085 114.639155,111.312612 115.99,111.39 C116.797252,111.317266 117.594054,111.613773 118.157385,112.196528 C118.720715,112.779284 118.990049,113.585677 118.89,114.39 Z" id="Shape" fill="#4A4A49"></path>
            <path d="M129.8,114.39 L129.8,118.95 L129.2,118.95 L129.2,114.49 C129.266246,113.824762 129.030544,113.164897 128.557824,112.692176 C128.085103,112.219456 127.425238,111.983754 126.76,112.05 C125.993137,112.025491 125.249394,112.314508 124.700299,112.850394 C124.151204,113.38628 123.844167,114.122768 123.85,114.89 L123.85,118.89 L123.25,118.89 L123.25,111.42 L123.85,111.42 L123.85,113.39 C124.35319,112.160409 125.583955,111.388165 126.91,111.47 C127.701034,111.400794 128.481828,111.687265 129.040403,112.251638 C129.598979,112.816012 129.877371,113.599723 129.8,114.39 Z" id="Shape" fill="#4A4A49"></path>
            <path d="M134.97,109.31 C134.95906,109.583271 134.730593,109.797047 134.457198,109.789826 C134.183804,109.782604 133.96694,109.557066 133.970441,109.283598 C133.973943,109.010131 134.19651,108.790219 134.47,108.79 C134.605269,108.792626 134.733951,108.848894 134.827725,108.946418 C134.921499,109.043943 134.972678,109.174732 134.97,109.31 Z M134.17,118.93 L134.17,111.46 L134.75,111.46 L134.75,118.93 L134.17,118.93 Z" id="Shape" fill="#4A4A49"></path>
            <path d="M146,121.72 L145.4,121.72 L145.4,116.98 C144.842953,118.233893 143.581326,119.024882 142.21,118.98 C140.122364,118.98 138.43,117.287636 138.43,115.2 C138.43,113.112364 140.122364,111.42 142.21,111.42 C143.584169,111.37375 144.849409,112.164525 145.41,113.42 L145.41,111.42 L146.01,111.42 L146,121.72 Z M145.4,115.21 C145.350593,113.498161 143.93059,112.146114 142.218386,112.180646 C140.506183,112.215179 139.141849,113.623382 139.161504,115.33582 C139.181159,117.048259 140.577455,118.424776 142.29,118.42 C143.136878,118.434865 143.952035,118.098041 144.54141,117.489715 C145.130785,116.881389 145.44165,116.055984 145.4,115.21 Z" id="Shape" fill="#4A4A49"></path>
            <path d="M156.88,118.93 L156.29,118.93 L156.29,116.93 C155.846842,118.190259 154.623762,119.005646 153.29,118.93 C152.500843,118.998131 151.722795,118.708324 151.170506,118.140532 C150.618217,117.57274 150.350054,116.786969 150.44,116 L150.44,111.44 L151.02,111.44 L151.02,115.89 C150.951919,116.548522 151.181291,117.203069 151.645534,117.675049 C152.109777,118.147029 152.760442,118.387188 153.42,118.33 C155.23,118.33 156.29,117.05 156.29,115.1 L156.29,111.44 L156.88,111.44 L156.88,118.93 Z" id="Shape" fill="#4A4A49"></path>
            <path d="M167.81,115.39 L161.28,115.39 C161.279635,116.201491 161.60803,116.978516 162.190257,117.543785 C162.772485,118.109055 163.558874,118.414345 164.37,118.39 C165.313168,118.425399 166.227734,118.062475 166.89,117.39 L167.23,117.78 C166.47752,118.56637 165.428022,118.998516 164.34,118.97 C162.268932,118.97 160.59,117.291068 160.59,115.22 C160.59,113.148932 162.268932,111.47 164.34,111.47 C166.5,111.45 167.85,113.05 167.81,115.39 Z M167.26,114.86 C167.265939,114.090972 166.957541,113.352879 166.406241,112.816682 C165.85494,112.280486 165.108566,111.992706 164.34,112.02 C162.74367,112.017728 161.425136,113.265941 161.34,114.86 L167.26,114.86 Z" id="Shape" fill="#4A4A49"></path>
            <polygon id="Shape" fill="#4A4A49" points="161.78 0 136.85 76.05 136.85 99.16 169.67 99.16 169.67 82.35 167.69 86.13 166.21 80.82 162.7 85.06 162.35 79.56 158.04 82.98 158.83 77.52 153.91 79.96 155.82 74.79 150.5 76.15 153.43 71.49 147.95 71.71 151.78 67.76 146.37 66.83 150.94 63.77 145.84 61.73 150.94 59.69 146.37 56.62 151.78 55.69 147.95 51.75 153.43 51.96 150.5 47.3 155.82 48.66 153.91 43.49 158.83 45.93 158.04 40.48 162.35 43.89 162.7 38.39 166.21 42.63 167.69 37.32 169.67 41.1 169.67 25.89 197.96 25.89 197.96 0"></polygon>
            <polygon id="Shape" fill="#688649" points="159.98 0 159.95 0 126.47 0 125.36 4.86 112.53 61.59 121.24 99.15 127.44 99.15 127.58 99.15"></polygon>
            <polygon id="Shape" fill="#4A4A49" points="98.46 0 104.46 25.89 118.91 25.89 124.84 0"></polygon>
        </g>
    </g>
</svg>